<?xml version="1.0" encoding="UTF-8"?>
<svg version="1.1" xmlns="http://www.w3.org/2000/svg" width="1024" height="1024">
<path d="M0 0 C337.92 0 675.84 0 1024 0 C1024 337.92 1024 675.84 1024 1024 C686.08 1024 348.16 1024 0 1024 C0 686.08 0 348.16 0 0 Z " fill="#000000" transform="translate(0,0)"/>
<path d="M0 0 C96.36 0 192.72 0 292 0 C292 57.85301205 292 57.85301205 279.37890625 72.9375 C278.27038282 74.00083183 277.14025754 75.04199329 275.9921875 76.0625 C273.32937157 78.65221902 271.12903463 81.55885741 268.875 84.5 C264.3433069 90.37982836 259.59078062 96.0148684 254.70117188 101.59912109 C250.78159389 106.08047411 246.98048645 110.64157969 243.234375 115.26953125 C240.73841374 118.31966573 238.18460129 121.31584992 235.625 124.3125 C231.84196554 128.74841723 228.19466784 133.26601262 224.625 137.875 C220.16948329 143.62027155 215.48856595 149.13095441 210.70019531 154.60058594 C206.78368043 159.07760385 202.98672933 163.63542937 199.2421875 168.2578125 C196.69746142 171.37000363 194.10374084 174.43719742 191.5 177.5 C186.59439431 183.27529756 181.77971011 189.11992497 177 195 C171.76081592 201.44532718 166.46460425 207.83422912 161.08642578 214.16357422 C157.44821128 218.45196877 153.88493283 222.79758257 150.3359375 227.16015625 C147.17280888 231.00563202 143.95092861 234.80007455 140.71679688 238.5859375 C138.37591282 241.33467691 136.1691589 244.10778813 134 247 C186.47 247.33 238.94 247.66 293 248 C293 278.69 293 309.38 293 341 C196.31 341 99.62 341 0 341 C0 280.47422788 0 280.47422788 17.65234375 261.5546875 C20.79784543 258.13179549 23.6930212 254.52987452 26.6171875 250.91796875 C29.20755752 247.74582711 31.84678938 244.61953249 34.5 241.5 C37.85460405 237.55361117 41.17222172 233.58357507 44.4375 229.5625 C48.39443418 224.69950576 52.46435942 219.94299797 56.55615234 215.19384766 C60.35163367 210.77968234 64.05277913 206.29666802 67.72265625 201.77734375 C70.28204054 198.65603633 72.88593791 195.5754997 75.5 192.5 C78.87283589 188.53096457 82.21176645 184.53982979 85.5 180.5 C89.24787798 175.8954642 93.06983444 171.35980809 96.9140625 166.8359375 C99.81244823 163.4194046 102.671551 159.97495162 105.5 156.5 C111.04192098 149.69586214 116.73308923 143.02024122 122.41601562 136.33398438 C127.90032821 129.87872848 133.33440576 123.39175206 138.6796875 116.8203125 C141.71876084 113.12635467 144.81519603 109.48238011 147.93164062 105.85351562 C151.78439601 101.33829551 155.34150149 96.7037838 159 92 C106.53 92 54.06 92 0 92 C0 61.64 0 31.28 0 0 Z " fill="#FEFEFE" transform="translate(119,310)"/>
<path d="M0 0 C32.34 0 64.68 0 98 0 C96.34283586 4.14291036 94.79795025 7.01203106 92.31640625 10.62890625 C91.94955215 11.16662659 91.58269806 11.70434692 91.20472717 12.25836182 C89.99502292 14.02944324 88.77872652 15.79589268 87.5625 17.5625 C86.70375449 18.8176038 85.84552785 20.07306275 84.98779297 21.32885742 C83.20725958 23.93481963 81.42451001 26.53924384 79.64013672 29.14257812 C76.00424508 34.45051209 72.39415726 39.77589067 68.78463745 45.10177612 C67.6135635 46.82937139 66.44178665 48.55648775 65.26977539 50.28344727 C59.3414683 59.01887949 53.42005322 67.75897271 47.5 76.5 C38.850248 89.27145922 30.19236667 102.03737607 21.52929688 114.79980469 C19.13354051 118.32939228 16.73850295 121.85946621 14.34420776 125.39004517 C13.52706768 126.59487307 12.70978688 127.79960555 11.8923645 129.00424194 C9.88793229 131.9583609 7.88540813 134.91373239 5.88720703 137.87207031 C2.120767 143.44258774 -1.67839379 148.98333226 -5.5625 154.47265625 C-6.27051758 155.48215332 -6.97853516 156.49165039 -7.70800781 157.53173828 C-9.03344046 159.41783338 -10.37070178 161.29569169 -11.72167969 163.16357422 C-12.30336914 163.99518066 -12.88505859 164.82678711 -13.484375 165.68359375 C-14.25346191 166.75951782 -14.25346191 166.75951782 -15.03808594 167.85717773 C-16.32504031 170.72408091 -15.99686977 172.04309168 -15 175 C-13.60554459 177.53533296 -13.60554459 177.53533296 -11.765625 180.1015625 C-11.06195801 181.12580322 -10.35829102 182.15004395 -9.63330078 183.20532227 C-9.2482135 183.75777618 -8.86312622 184.3102301 -8.46636963 184.87942505 C-6.76185933 187.32551578 -5.07638413 189.78453847 -3.3890686 192.24250793 C-2.45200005 193.6070761 -1.51395899 194.97097683 -0.57504272 196.33427429 C5.02107496 204.46425989 10.52992808 212.65284896 16.04187012 220.84002686 C18.52621593 224.52965344 21.01283351 228.2177466 23.49938965 231.90588379 C25.40443012 234.73154484 27.30917542 237.55740467 29.21386719 240.38330078 C34.70707596 248.53287063 40.20280536 256.68074027 45.69839478 264.82870483 C47.5044135 267.50654404 49.31022083 270.18452568 51.1159668 272.86254883 C56.57950484 280.9650128 62.04415624 289.0667152 67.51423645 297.1647644 C70.57270798 301.69269226 73.63025473 306.22124412 76.6875 310.75 C77.28480927 311.63467957 77.88211853 312.51935913 78.49752808 313.43084717 C85.08675665 323.19282441 91.65614258 332.96741995 98.1796875 342.7734375 C98.76283218 343.64979858 99.34597687 344.52615967 99.9467926 345.42907715 C102.69399416 349.55915642 105.43794103 353.69134263 108.17651367 357.82714844 C113.54296292 365.91662017 119.0181516 373.90991382 124.64248657 381.82232666 C129.10344637 388.11074121 133.39941965 394.49893483 137.65124512 400.92999268 C139.97361972 404.44176602 142.30518491 407.94742848 144.63671875 411.453125 C145.13551544 412.20328888 145.63431213 412.95345276 146.14822388 413.72634888 C154.60410115 426.42948104 163.16676067 439.06122896 171.70921326 451.70620728 C173.94917652 455.02374949 176.18594365 458.34344074 178.42260742 461.66320801 C179.97067743 463.95656075 181.52494886 466.24561004 183.08007812 468.53417969 C184.00669448 469.9054746 184.93313769 471.27688654 185.859375 472.6484375 C186.28357727 473.26892975 186.70777954 473.889422 187.14483643 474.52871704 C190 478.77285661 190 478.77285661 190 481 C99.47839582 488.68542666 99.47839582 488.68542666 83.3782196 475.14736938 C75.02021478 466.13986945 70.71692664 454.53511953 66.52929688 443.16162109 C62.96142726 433.88570343 57.15026089 426.13823571 51.37576294 418.12625122 C48.26822609 413.77539629 45.30176319 409.33097344 42.32421875 404.890625 C41.73035873 404.01020035 41.13649872 403.1297757 40.52464294 402.22267151 C30.43009149 387.25229133 20.54910112 372.13893212 10.63838196 357.04656982 C7.44394299 352.18530289 4.23279985 347.3358309 1 342.5 C-2.79388178 336.8248665 -6.55372452 331.12802849 -10.30078125 325.421875 C-20.28581312 310.22039492 -30.27111637 295.01991413 -40.4296875 279.93359375 C-41.02940872 279.03960876 -41.62912994 278.14562378 -42.24702454 277.22454834 C-45.25861485 272.74532167 -48.30455668 268.29728304 -51.42358398 263.89208984 C-57.61081866 255.0766209 -62.8339268 246.56856067 -67.10546875 236.66796875 C-74.44467255 220.18799885 -74.44467255 220.18799885 -88 209 C-93.76942333 207.44584371 -99.47133807 206.77558415 -105.421875 206.35546875 C-106.4967152 206.27952704 -106.4967152 206.27952704 -107.59326935 206.20205116 C-124.68299092 205.18788187 -142.03267891 207.02954437 -159 208 C-159 251.89 -159 295.78 -159 341 C-184.74 341 -210.48 341 -237 341 C-237 273.02 -237 205.04 -237 135 C-164.3125 136.6875 -164.3125 136.6875 -141.5402832 137.55737305 C-135.49268298 137.65798603 -129.47013645 137.73345806 -123.42578125 137.63671875 C-122.64362189 137.62488107 -121.86146252 137.6130434 -121.05560136 137.60084701 C-98.49121378 137.27686126 -98.49121378 137.27686126 -79.47998905 126.41281796 C-71.36044348 117.22578777 -66.07486308 106.56604158 -61.37031555 95.33428955 C-58.20681046 87.90281383 -53.76623006 81.3790297 -49.20110893 74.74964714 C-47.55117192 72.34619521 -45.96344097 69.90371123 -44.37475586 67.45947266 C-43.32218612 65.86051898 -42.26888535 64.2620463 -41.21484375 62.6640625 C-40.34458305 61.34308563 -40.34458305 61.34308563 -39.45674133 59.99542236 C-37.61778861 57.20475698 -35.777702 54.41484172 -33.9375 51.625 C-33.30702759 50.66853577 -32.67655518 49.71207153 -32.02697754 48.72662354 C-23.39841054 35.63684105 -14.74649876 22.56315778 -6.01538086 9.54150391 C-5.02550171 8.06302979 -5.02550171 8.06302979 -4.015625 6.5546875 C-3.45133789 5.71405762 -2.88705078 4.87342773 -2.30566406 4.00732422 C-0.97527896 2.04456066 -0.97527896 2.04456066 0 0 Z " fill="#FDFDFD" transform="translate(708,310)"/>
<path d="M0 0 C8.88488383 0.42954993 17.77101768 0.6348502 26.6637392 0.82473099 C44.91821131 1.2193697 63.1534232 1.88522706 81.3920058 2.737028 C79.79564687 6.95356539 77.69445513 10.32457426 75.0170058 13.924528 C71.1592671 19.2193394 67.44251159 24.58489512 63.8295058 30.049528 C59.04658897 37.271865 54.20582244 44.45240563 49.3295058 51.612028 C48.25503192 53.1898405 48.25503192 53.1898405 47.1588515 54.799528 C46.04524425 56.43466709 44.93163533 58.06980507 43.81786335 59.70483196 C39.54314145 65.98112492 35.27995123 72.26523312 31.0170058 78.549528 C30.21810346 79.72710448 29.41919393 80.90467607 28.62027729 82.08224285 C27.01321099 84.45102314 25.40620389 86.81984357 23.79923236 89.18868816 C20.22582965 94.45615516 16.65163256 99.72308312 13.07749164 104.99004924 C11.09896347 107.90568651 9.12048728 110.82135905 7.1420058 113.737028 C6.35033938 114.90369484 5.55867272 116.0703615 4.7670058 117.237028 C4.3751308 117.814528 3.9832558 118.392028 3.5795058 118.987028 C0.01700584 124.23702795 0.01700584 124.23702795 -1.17043316 125.98693645 C-1.96230527 127.15390694 -2.75417539 128.32087879 -3.54604352 129.48785198 C-5.52205064 132.39988118 -7.49809206 135.3118871 -9.47420514 138.22384441 C-13.07435597 143.52902208 -16.6742296 148.83438695 -20.27286541 154.14059246 C-30.36409085 169.02009688 -40.47065581 183.88887652 -50.6079942 198.737028 C-46.99486478 205.63539562 -42.79910191 211.95521019 -38.2954942 218.299528 C-32.73440172 226.21316974 -27.26401267 234.17484154 -21.9204942 242.237028 C-15.84496039 251.39617329 -9.71561098 260.51648745 -3.5454942 269.612028 C-3.10651806 270.25924816 -2.66754193 270.90646831 -2.21526349 271.5733012 C-0.40499111 274.24225712 1.40541266 276.9111238 3.21611774 279.57978618 C8.4072151 287.23131504 13.5871779 294.89036773 18.7670058 302.549528 C19.73257198 303.97710638 20.69814818 305.40467797 21.66373432 306.83224285 C23.6041275 309.7010276 25.54447094 312.56984599 27.48477924 315.43868816 C31.80827017 321.83109442 36.13241887 328.22305572 40.45651996 334.61504924 C42.85170904 338.15569047 45.24685524 341.69636071 47.6420058 345.237028 C48.60033893 346.65369481 49.55867226 348.07036147 50.5170058 349.487028 C60.10033913 363.65369467 69.68367247 377.82036134 79.2670058 391.987028 C79.74137073 392.6882629 80.21573566 393.38949779 80.70447528 394.11198223 C81.66291116 395.52880093 82.62134622 396.94562018 83.57978046 398.36243999 C85.9740381 401.90178511 88.36830997 405.44112062 90.76261127 408.98043621 C95.09393225 415.38313243 99.42514697 421.78590041 103.75583637 428.18902385 C113.03346826 441.90641258 122.31249525 455.62284362 131.60157001 469.33248699 C139.13498555 480.45097811 146.66700586 491.57041359 154.19425189 502.69308269 C155.18319969 504.15428263 156.17228932 505.61538658 157.16153705 507.07638347 C159.83178508 511.02014856 162.49967195 514.96548386 165.16257465 518.91421306 C165.984217 520.13242032 166.80644498 521.3502328 167.62924945 522.56765544 C168.7752219 524.26442333 169.91769527 525.9635529 171.05997455 527.66280925 C171.70603656 528.62227458 172.35209857 529.58173992 173.01773822 530.57027996 C174.3920058 532.737028 174.3920058 532.737028 174.3920058 533.737028 C155.25261341 534.58281431 136.11706388 535.21502003 116.96278369 535.60226619 C108.06525233 535.78698162 99.17951741 536.03895182 90.28946674 536.45284832 C28.89466284 539.25404713 28.89466284 539.25404713 16.73558891 528.45487678 C9.70947329 520.88945061 5.6457249 511.75060562 2.12168109 502.1566447 C-0.10268273 496.18339542 -3.56403921 491.24956881 -7.27596295 486.10812175 C-8.37858736 484.44747869 -9.47280306 482.78121738 -10.55794537 481.10909832 C-22.85176929 462.36818978 -35.29065467 443.73146938 -47.89192975 425.19576824 C-52.91216981 417.79874496 -57.88489079 410.39449987 -62.5767442 402.783903 C-67.98338357 394.01440054 -73.76368977 385.50688891 -79.55281842 376.98681438 C-88.83452826 363.32131657 -98.07004915 349.62764288 -107.1079942 335.799528 C-107.50939618 335.18546093 -107.91079815 334.57139385 -108.32436383 333.93871868 C-109.99979428 331.3750072 -111.67488756 328.81107606 -113.34932721 326.24671733 C-119.16218392 317.3494836 -125.01450046 308.47817977 -130.86385357 299.60491741 C-132.73869827 296.76069009 -134.61283799 293.91599929 -136.48690045 291.07125652 C-137.66654144 289.28143095 -138.84622702 287.49163475 -140.02596295 285.70187175 C-140.5419656 284.91851451 -141.05796826 284.13515728 -141.58960736 283.32806194 C-146.56798325 275.77885373 -151.59163112 268.26157262 -156.6079942 260.737028 C-170.7979942 260.407028 -184.9879942 260.077028 -199.6079942 259.737028 C-199.6079942 303.957028 -199.6079942 348.177028 -199.6079942 393.737028 C-238.2179942 393.737028 -276.8279942 393.737028 -316.6079942 393.737028 C-316.9379942 308.597028 -317.2679942 223.457028 -317.6079942 135.737028 C-237.7329942 136.674528 -237.7329942 136.674528 -212.53816998 137.08834636 C-205.06725398 137.13852131 -205.06725398 137.13852131 -197.59624493 137.16868389 C-194.27431415 137.18263098 -190.95599901 137.23868878 -187.63506329 137.32066143 C-183.39029267 137.42403992 -179.15073005 137.45432262 -174.90481746 137.43311214 C-173.3522187 137.43754177 -171.79942706 137.46704086 -170.24791372 137.52525496 C-162.05311921 137.91454349 -162.05311921 137.91454349 -155.01695907 134.26647615 C-152.01780214 130.64760273 -149.72975936 126.69198398 -147.56502891 122.53346354 C-146.26813204 120.09907783 -144.74916118 117.84023372 -143.19149029 115.56637371 C-142.17107017 114.01544905 -141.15105338 112.46425894 -140.1314317 110.91280925 C-138.96709957 109.14340398 -137.80270922 107.37403702 -136.63826764 105.60470378 C-135.7448869 104.24686779 -135.7448869 104.24686779 -134.83345807 102.86160076 C-126.13732255 89.64644633 -117.43202467 76.43786369 -108.64461529 63.28317058 C-108.16633786 62.557942 -107.68806042 61.83271343 -107.19528973 61.08550823 C-105.71732417 58.89467398 -104.20622789 56.74104043 -102.67194378 54.58996379 C-97.84992756 47.72049754 -93.56259517 41.18997368 -90.61979783 33.29309928 C-75.06750489 -8.33407243 -37.52314394 -1.84648899 0 0 Z M-68.70001614 41.76167476 C-69.91701274 44.40931383 -71.47680884 46.72488833 -73.15145123 49.10397136 C-73.94472317 50.2739693 -73.94472317 50.2739693 -74.75402081 51.46760356 C-75.55185483 52.63544132 -75.55185483 52.63544132 -76.3658067 53.82687175 C-77.57159781 55.60417348 -78.77732472 57.38151876 -79.9829942 59.158903 C-80.59529889 60.05931316 -81.20760357 60.95972332 -81.83846295 61.88741863 C-94.44361778 80.41717408 -94.44361778 80.41717408 -106.6079942 99.237028 C-117.03903293 115.80693607 -128.15534784 131.93531473 -139.14174664 148.13941753 C-139.67104779 148.92017147 -140.20034894 149.7009254 -140.74568951 150.50533855 C-141.20372967 151.18050014 -141.66176983 151.85566173 -142.13369 152.55128276 C-143.76620099 154.80790442 -143.76620099 154.80790442 -144.9036485 157.94746196 C-148.80799392 161.97484255 -152.09964078 161.50165978 -157.55348599 161.61041629 C-158.94893502 161.60805794 -160.34438321 161.60515675 -161.73983014 161.6017741 C-163.23218438 161.61998387 -164.72450864 161.64080957 -166.21679318 161.66403949 C-170.2132734 161.719026 -174.20917578 161.73820194 -178.20598614 161.74998271 C-181.95634784 161.76645712 -185.70601909 161.81519584 -189.45613873 161.86129558 C-200.42312881 161.97730186 -211.39061737 162.04149898 -222.3579942 162.112028 C-246.8604942 162.318278 -271.3629942 162.524528 -296.6079942 162.737028 C-296.6079942 230.717028 -296.6079942 298.697028 -296.6079942 368.737028 C-270.8679942 368.737028 -245.1279942 368.737028 -218.6079942 368.737028 C-218.6079942 324.847028 -218.6079942 280.957028 -218.6079942 235.737028 C-176.32375795 232.99129838 -176.32375795 232.99129838 -165.22908795 233.830778 C-164.45344431 233.88943538 -163.67780068 233.94809276 -162.87865269 234.00852764 C-152.50549241 234.92792712 -144.63333661 236.66933869 -137.45565045 244.830778 C-130.69987865 253.50282241 -126.10067935 263.66444305 -121.56941998 273.62032878 C-117.29773918 282.78526623 -111.5090276 290.94202545 -105.79140484 299.24859416 C-102.6815151 303.80050975 -99.67598798 308.42027914 -96.65877545 313.033903 C-90.02219479 323.13308926 -83.32247876 333.18953516 -76.6079942 343.237028 C-68.06098379 356.02669565 -59.57160055 368.85259508 -51.12264264 381.70724285 C-40.29763782 398.17617722 -29.3634492 414.56483419 -18.31545269 430.88497722 C-7.52584053 446.82860026 3.10622309 462.87232474 13.67716205 478.96163738 C14.2535593 479.83890483 14.82995655 480.71617229 15.42382038 481.62002361 C16.4758156 483.2218482 17.52723517 484.82405113 18.57784259 486.4267863 C19.58462044 487.96092199 20.61244862 489.48139971 21.65824115 490.98921001 C23.04979101 493.19465683 24.13322549 495.27040567 25.22928607 497.61973369 C28.93948031 505.03273554 28.93948031 505.03273554 35.58237255 509.55764949 C42.19413142 510.8635046 48.89101777 510.45737511 55.5873183 510.20187175 C57.74771469 510.17386145 59.90820699 510.15252525 62.0687331 510.13755596 C67.72993158 510.08053357 73.38526947 509.93344911 79.04416645 509.76699626 C84.8285771 509.61297981 90.61394417 509.54492384 96.3998183 509.46944988 C107.73310963 509.3090292 119.06206874 509.05336109 130.3920058 508.737028 C128.95572179 505.01981861 127.3422203 501.9440728 125.09122455 498.64718425 C124.37370014 497.58902507 123.65617572 496.53086589 122.91690814 495.44064128 C122.51534503 494.85228496 122.11378192 494.26392864 121.70005023 493.65774333 C119.76215793 490.81216763 117.84245285 487.95442291 115.9204787 485.09808147 C113.01905893 480.7875973 110.11110996 476.48151717 107.2045058 472.174528 C105.91931494 470.26960344 104.6341594 468.36465504 103.34903705 466.45968425 C100.68462245 462.51021084 98.02005739 458.56083901 95.35538471 454.61153972 C89.79681337 446.37295805 84.24009826 438.13312467 78.68335712 429.89330852 C75.66966021 425.42448976 72.65582562 420.95576387 69.6420058 416.487028 C68.43367182 414.69536177 67.22533848 412.90369511 66.0170058 411.112028 C65.1198183 409.7817155 65.1198183 409.7817155 64.2045058 408.424528 C58.7670058 400.362028 58.7670058 400.362028 56.95455158 397.67458904 C55.74607411 395.88271322 54.53758819 394.0908431 53.32909381 392.29897869 C50.31039637 387.82305877 47.29184539 383.34704021 44.2735976 378.87081707 C38.81085438 370.76958661 33.34702836 362.66909708 27.87776935 354.5722636 C24.81929783 350.04433575 21.76175107 345.51578389 18.7045058 340.987028 C18.10719654 340.10234844 17.50988727 339.21766887 16.89447773 338.30618083 C10.30524915 328.54420359 3.73586322 318.76960806 -2.7876817 308.9635905 C-3.37082638 308.08722942 -3.95397107 307.21086833 -4.5547868 306.30795085 C-7.30198836 302.17787158 -10.04593523 298.04568537 -12.78450787 293.90987957 C-18.13774439 285.84029414 -23.59882515 277.86629778 -29.20969403 269.97361553 C-34.32445449 262.76342034 -39.22921238 255.42064468 -44.1079942 248.049528 C-46.00438093 245.18705197 -47.90158474 242.32511932 -49.79940045 239.4635905 C-50.27571408 238.74489284 -50.75202771 238.02619518 -51.24277508 237.2857188 C-54.15047369 232.90625807 -57.08756649 228.54838219 -60.05254376 224.20750225 C-61.94041259 221.44324004 -63.81953509 218.67308408 -65.69832623 215.9026469 C-66.59214082 214.59021106 -67.49038307 213.28077905 -68.39315045 211.97448528 C-69.6415738 210.16715374 -70.87428199 208.35002669 -72.10408795 206.52999675 C-72.80719098 205.5041447 -73.510294 204.47829265 -74.23470318 203.42135417 C-75.6079942 200.737028 -75.6079942 200.737028 -75.48275006 198.62496746 C-74.50666797 196.51834096 -73.41766469 194.66179109 -72.1158067 192.737028 C-71.58576031 191.94739666 -71.05571393 191.15776531 -70.50960553 190.34420574 C-69.92332379 189.48383708 -69.33704205 188.62346843 -68.7329942 187.737028 C-67.80619854 186.3623637 -67.80619854 186.3623637 -66.86067975 184.95992839 C-64.78253309 181.8814674 -62.69557613 178.80909725 -60.6079942 175.737028 C-59.49248351 174.08992403 -58.37697806 172.44281645 -57.26189435 170.79542339 C-53.2778406 164.90993058 -49.28541853 159.03015304 -45.28948224 153.15272319 C-41.32470809 147.32109792 -37.3641241 141.48663512 -33.40471661 135.65136516 C-32.22816832 133.91741582 -31.05150594 132.18354393 -29.8748399 130.44967449 C-23.94786211 121.71530504 -18.02713578 112.97670924 -12.1079942 104.237028 C-5.79443767 94.9149885 0.52154851 85.59461217 6.84394062 76.27856243 C8.00687495 74.56446033 9.16912559 72.84989652 10.33121479 71.13522136 C14.00302071 65.71910294 17.68209181 60.30824273 21.38150775 54.91093242 C23.14946874 52.33065154 24.91391536 49.74797719 26.67807758 47.16509807 C27.52011 45.93442137 28.36386482 44.70492114 29.20944965 43.47668254 C30.38012691 41.77603613 31.54484267 40.07144859 32.70841205 38.36593425 C33.37300434 37.39728435 34.03759662 36.42863445 34.72232807 35.43063152 C36.28656712 32.90712669 37.33133411 30.49829448 38.3920058 27.737028 C25.78811888 27.36556674 13.18554199 27.08166094 0.57728755 26.90803325 C-5.27827479 26.82467529 -11.13008201 26.7117387 -16.98348248 26.52999675 C-22.63782149 26.35554348 -28.28856205 26.26036999 -33.9453851 26.21899211 C-36.09799776 26.18952847 -38.2504227 26.13197902 -40.40149319 26.04534709 C-55.72369742 25.45306632 -62.37116511 27.38140425 -68.70001614 41.76167476 Z " fill="#030303" transform="translate(767.6079941987991,282.26297199726105)"/>
<path d="M0 0 C109.23 0 218.46 0 331 0 C331 96.05679899 331 96.05679899 303.3125 126.41015625 C300.21854328 129.87517873 297.30527729 133.47222717 294.3828125 137.08203125 C291.79244152 140.25417407 289.15317133 143.38043294 286.5 146.5 C282.37994164 151.34800649 278.3320357 156.24846418 274.31640625 161.18359375 C271.72212734 164.33785192 269.08393735 167.4520298 266.4375 170.5625 C263.23260809 174.33088939 260.07312306 178.12246028 257 182 C253.47116597 186.45253701 249.81770671 190.78685979 246.13671875 195.11328125 C243.21995487 198.54571609 240.34306574 202.00592815 237.5 205.5 C234.21175802 209.53984014 230.87250183 213.53067248 227.5 217.5 C218.74971218 227.81089682 210.35946924 238.36067551 202 249 C244.57 249 287.14 249 331 249 C331 295.86 331 342.72 331 391 C221.77 391 112.54 391 0 391 C0 298.10865874 0 298.10865874 22 272 C22.63929443 271.24130615 22.63929443 271.24130615 23.29150391 270.46728516 C25.14302202 268.27232413 26.99759115 266.08001313 28.85742188 263.89208984 C33.30998119 258.65278854 37.66308576 253.33534054 42 248 C47.23789344 241.55626059 52.5338025 235.16983338 57.90917969 228.84082031 C62.3405996 223.61552812 66.67844842 218.31644115 71 213 C75.7797175 207.11991588 80.59473597 201.27559389 85.5 195.5 C89.55000511 190.73078305 93.54351856 185.92087884 97.49609375 181.0703125 C105.80516807 170.88165038 114.16688264 160.74037478 122.6953125 150.734375 C124.83892513 148.19110578 126.92216872 145.5972891 129 143 C86.43 142.67 43.86 142.34 0 142 C0 95.14 0 48.28 0 0 Z M20 25 C20 55.36 20 85.72 20 117 C72.47 117 124.94 117 179 117 C168.84647887 129.40985915 168.84647887 129.40985915 164 135 C159.67677929 140.01460679 155.44516783 145.09180247 151.26953125 150.23046875 C146.45311061 156.10799411 141.505057 161.87611914 136.58398438 167.66601562 C131.09729486 174.12406926 125.66222871 180.61497616 120.3125 187.1875 C117.27632634 190.88014364 114.1815003 194.52121788 111.0859375 198.1640625 C108.18755177 201.5805954 105.328449 205.02504838 102.5 208.5 C98.75147354 213.1053325 94.92915754 217.64204444 91.08374023 222.16625977 C88.2045468 225.55954109 85.36795763 228.98267786 82.5625 232.4375 C78.60556582 237.30049424 74.53564058 242.05700203 70.44384766 246.80615234 C66.64836633 251.22031766 62.94722087 255.70333198 59.27734375 260.22265625 C56.71795783 263.34396567 54.11398455 266.42443239 51.5 269.5 C47.34209493 274.39516824 43.23421027 279.32597654 39.1953125 284.3203125 C37.69629159 286.15007824 36.16868134 287.95669787 34.6171875 289.7421875 C15.33605114 312.20502953 20 335.22961387 20 366 C116.69 366 213.38 366 313 366 C313 335.31 313 304.62 313 273 C260.53 272.67 208.06 272.34 154 272 C159.94 265.07 159.94 265.07 166 258 C169.37250851 253.88874677 169.37250851 253.88874677 172.73046875 249.765625 C175.24099795 246.70632264 177.80512442 243.69687068 180.375 240.6875 C184.1579797 236.25153337 187.80532976 231.73399047 191.375 227.125 C195.83051671 221.37972845 200.51143405 215.86904559 205.29980469 210.39941406 C209.21631957 205.92239615 213.01327067 201.36457063 216.7578125 196.7421875 C219.30253858 193.62999637 221.89625916 190.56280258 224.5 187.5 C229.40560569 181.72470244 234.22028989 175.88007503 239 170 C244.23918408 163.55467282 249.53539575 157.16577088 254.91357422 150.83642578 C258.56258097 146.53531031 262.13630258 142.17671694 265.6953125 137.80078125 C268.22032749 134.73224609 270.79470245 131.70947419 273.375 128.6875 C277.69471713 123.6264627 281.81088705 118.43565426 285.86572266 113.16088867 C288.52593344 109.74285473 291.30846493 106.56570358 294.32983398 103.46386719 C315.41198031 81.73298368 312 54.59590747 312 25 C215.64 25 119.28 25 20 25 Z " fill="#060606" transform="translate(99,285)"/>
<path d="M0 0 C8.88488383 0.42954993 17.77101768 0.6348502 26.6637392 0.82473099 C44.91821131 1.2193697 63.1534232 1.88522706 81.3920058 2.737028 C79.79564687 6.95356539 77.69445513 10.32457426 75.0170058 13.924528 C71.1592671 19.2193394 67.44251159 24.58489512 63.8295058 30.049528 C59.04658897 37.271865 54.20582244 44.45240563 49.3295058 51.612028 C48.25503192 53.1898405 48.25503192 53.1898405 47.1588515 54.799528 C46.04524425 56.43466709 44.93163533 58.06980507 43.81786335 59.70483196 C39.54314145 65.98112492 35.27995123 72.26523312 31.0170058 78.549528 C30.21810346 79.72710448 29.41919393 80.90467607 28.62027729 82.08224285 C27.01321099 84.45102314 25.40620389 86.81984357 23.79923236 89.18868816 C20.22582965 94.45615516 16.65163256 99.72308312 13.07749164 104.99004924 C11.09896347 107.90568651 9.12048728 110.82135905 7.1420058 113.737028 C6.35033938 114.90369484 5.55867272 116.0703615 4.7670058 117.237028 C4.3751308 117.814528 3.9832558 118.392028 3.5795058 118.987028 C0.01700584 124.23702795 0.01700584 124.23702795 -1.17043316 125.98693645 C-1.96230527 127.15390694 -2.75417539 128.32087879 -3.54604352 129.48785198 C-5.52205064 132.39988118 -7.49809206 135.3118871 -9.47420514 138.22384441 C-13.07435597 143.52902208 -16.6742296 148.83438695 -20.27286541 154.14059246 C-30.36409085 169.02009688 -40.47065581 183.88887652 -50.6079942 198.737028 C-46.99486478 205.63539562 -42.79910191 211.95521019 -38.2954942 218.299528 C-32.73440172 226.21316974 -27.26401267 234.17484154 -21.9204942 242.237028 C-15.84496039 251.39617329 -9.71561098 260.51648745 -3.5454942 269.612028 C-3.10651806 270.25924816 -2.66754193 270.90646831 -2.21526349 271.5733012 C-0.40499111 274.24225712 1.40541266 276.9111238 3.21611774 279.57978618 C8.4072151 287.23131504 13.5871779 294.89036773 18.7670058 302.549528 C19.73257198 303.97710638 20.69814818 305.40467797 21.66373432 306.83224285 C23.6041275 309.7010276 25.54447094 312.56984599 27.48477924 315.43868816 C31.80827017 321.83109442 36.13241887 328.22305572 40.45651996 334.61504924 C42.85170904 338.15569047 45.24685524 341.69636071 47.6420058 345.237028 C48.60033893 346.65369481 49.55867226 348.07036147 50.5170058 349.487028 C60.10033913 363.65369467 69.68367247 377.82036134 79.2670058 391.987028 C79.74137073 392.6882629 80.21573566 393.38949779 80.70447528 394.11198223 C81.66291116 395.52880093 82.62134622 396.94562018 83.57978046 398.36243999 C85.9740381 401.90178511 88.36830997 405.44112062 90.76261127 408.98043621 C95.09393225 415.38313243 99.42514697 421.78590041 103.75583637 428.18902385 C113.03346826 441.90641258 122.31249525 455.62284362 131.60157001 469.33248699 C139.13498555 480.45097811 146.66700586 491.57041359 154.19425189 502.69308269 C155.18319969 504.15428263 156.17228932 505.61538658 157.16153705 507.07638347 C159.83178508 511.02014856 162.49967195 514.96548386 165.16257465 518.91421306 C165.984217 520.13242032 166.80644498 521.3502328 167.62924945 522.56765544 C168.7752219 524.26442333 169.91769527 525.9635529 171.05997455 527.66280925 C171.70603656 528.62227458 172.35209857 529.58173992 173.01773822 530.57027996 C174.3920058 532.737028 174.3920058 532.737028 174.3920058 533.737028 C155.25261341 534.58281431 136.11706388 535.21502003 116.96278369 535.60226619 C108.06525233 535.78698162 99.17951741 536.03895182 90.28946674 536.45284832 C28.89466284 539.25404713 28.89466284 539.25404713 16.73558891 528.45487678 C9.70947329 520.88945061 5.6457249 511.75060562 2.12168109 502.1566447 C-0.10268273 496.18339542 -3.56403921 491.24956881 -7.27596295 486.10812175 C-8.37858736 484.44747869 -9.47280306 482.78121738 -10.55794537 481.10909832 C-22.85176929 462.36818978 -35.29065467 443.73146938 -47.89192975 425.19576824 C-52.91216981 417.79874496 -57.88489079 410.39449987 -62.5767442 402.783903 C-67.98338357 394.01440054 -73.76368977 385.50688891 -79.55281842 376.98681438 C-88.83452826 363.32131657 -98.07004915 349.62764288 -107.1079942 335.799528 C-107.50939618 335.18546093 -107.91079815 334.57139385 -108.32436383 333.93871868 C-109.99979428 331.3750072 -111.67488756 328.81107606 -113.34932721 326.24671733 C-119.16218392 317.3494836 -125.01450046 308.47817977 -130.86385357 299.60491741 C-132.73869827 296.76069009 -134.61283799 293.91599929 -136.48690045 291.07125652 C-137.66654144 289.28143095 -138.84622702 287.49163475 -140.02596295 285.70187175 C-140.5419656 284.91851451 -141.05796826 284.13515728 -141.58960736 283.32806194 C-146.56798325 275.77885373 -151.59163112 268.26157262 -156.6079942 260.737028 C-170.7979942 260.407028 -184.9879942 260.077028 -199.6079942 259.737028 C-199.6079942 303.957028 -199.6079942 348.177028 -199.6079942 393.737028 C-238.2179942 393.737028 -276.8279942 393.737028 -316.6079942 393.737028 C-316.9379942 308.597028 -317.2679942 223.457028 -317.6079942 135.737028 C-237.7329942 136.674528 -237.7329942 136.674528 -212.53816998 137.08834636 C-205.06725398 137.13852131 -205.06725398 137.13852131 -197.59624493 137.16868389 C-194.27431415 137.18263098 -190.95599901 137.23868878 -187.63506329 137.32066143 C-183.39029267 137.42403992 -179.15073005 137.45432262 -174.90481746 137.43311214 C-173.3522187 137.43754177 -171.79942706 137.46704086 -170.24791372 137.52525496 C-162.05311921 137.91454349 -162.05311921 137.91454349 -155.01695907 134.26647615 C-152.01780214 130.64760273 -149.72975936 126.69198398 -147.56502891 122.53346354 C-146.26813204 120.09907783 -144.74916118 117.84023372 -143.19149029 115.56637371 C-142.17107017 114.01544905 -141.15105338 112.46425894 -140.1314317 110.91280925 C-138.96709957 109.14340398 -137.80270922 107.37403702 -136.63826764 105.60470378 C-135.7448869 104.24686779 -135.7448869 104.24686779 -134.83345807 102.86160076 C-126.13732255 89.64644633 -117.43202467 76.43786369 -108.64461529 63.28317058 C-108.16633786 62.557942 -107.68806042 61.83271343 -107.19528973 61.08550823 C-105.71732417 58.89467398 -104.20622789 56.74104043 -102.67194378 54.58996379 C-97.84992756 47.72049754 -93.56259517 41.18997368 -90.61979783 33.29309928 C-75.06750489 -8.33407243 -37.52314394 -1.84648899 0 0 Z M-90.14229596 50.46749675 C-93.57329197 58.00965326 -98.03224664 64.85051847 -102.6079942 71.737028 C-103.51836186 73.12606586 -103.51836186 73.12606586 -104.44712079 74.54316509 C-106.02211525 76.92502657 -107.61831608 79.29064098 -109.2251817 81.6510905 C-109.80134732 82.50271266 -110.37751294 83.35433483 -110.97113812 84.23176372 C-112.18555325 86.02631743 -113.40115268 87.82007025 -114.61791241 89.61303508 C-117.16613008 93.36891988 -119.70693444 97.12979762 -122.24814618 100.89042461 C-124.15676237 103.71483308 -126.06618391 106.53869586 -127.97566998 109.36251628 C-132.70096483 116.35268147 -137.42136751 123.3460319 -142.11708844 130.35610759 C-142.98200657 131.64572868 -143.84865046 132.93419413 -144.71706402 134.22146404 C-145.89986561 135.97510623 -147.0769573 137.73243813 -148.25252545 139.49093425 C-148.90583844 140.46361248 -149.55915143 141.4362907 -150.23226178 142.43844402 C-151.77917996 144.57657484 -151.77917996 144.57657484 -151.6079942 146.737028 C-152.77548199 146.70673503 -153.94296978 146.67644207 -155.145836 146.64523113 C-206.31350967 145.38667239 -257.40029847 145.737028 -308.6079942 145.737028 C-308.6079942 223.947028 -308.6079942 302.157028 -308.6079942 382.737028 C-275.2779942 382.737028 -241.9479942 382.737028 -207.6079942 382.737028 C-207.6079942 339.177028 -207.6079942 295.617028 -207.6079942 250.737028 C-189.1279942 251.067028 -170.6479942 251.397028 -151.6079942 251.737028 C-136.66960127 268.51617078 -136.66960127 268.51617078 -133.5923692 276.1979655 C-128.83685345 286.86828974 -122.63582543 296.25199986 -116.0663377 305.88091838 C-112.90596235 310.53787186 -109.82695745 315.24810721 -106.73690045 319.95187175 C-99.91436241 330.29395191 -93.04304941 340.6031678 -86.15953839 350.90472209 C-77.12930538 364.42116075 -68.18043642 377.99032512 -59.24422467 391.56905925 C-50.59472843 404.71029546 -41.90227611 417.82145502 -33.16127789 430.90197551 C-23.02312218 446.07680382 -12.93126899 461.28457052 -2.9691087 476.57566631 C-1.8119875 478.31831711 -0.62510598 480.04151493 0.58832538 481.7454356 C4.05415992 486.7030329 6.78945961 491.4883846 8.99618518 497.10022914 C13.14019268 507.44372753 18.20486401 518.21319904 28.3920058 523.737028 C46.34851279 529.58306961 67.92230292 527.05478409 86.54013395 526.11392695 C94.05649692 525.74071397 101.57398468 525.56256734 109.09734309 525.39770699 C124.53958454 525.05509553 139.9633769 524.47700449 155.3920058 523.737028 C154.60633929 522.30832629 153.81887921 520.88061081 153.03067768 519.45330608 C152.37319538 518.26055726 152.37319538 518.26055726 151.70243061 517.0437125 C149.91503883 513.89744353 147.93978906 510.91314202 145.8920058 507.9323405 C145.46813587 507.30838893 145.04426593 506.68443737 144.60755146 506.04157817 C143.68887544 504.69016039 142.7684844 503.33990714 141.84653461 501.99072063 C139.81485324 499.01736932 137.79183975 496.03815121 135.76795185 493.05949199 C134.67784487 491.45541693 133.5872797 489.85165316 132.49628437 488.24818218 C126.66794363 479.68084817 120.87512366 471.08967514 115.08463275 462.49673259 C112.62986167 458.85406003 110.17408621 455.21206504 107.71836078 451.57003582 C105.85002881 448.79911176 103.98184457 446.02808816 102.11368549 443.25704753 C96.64274781 435.14224674 91.17028453 427.02847487 85.697914 418.91464031 C82.68183249 414.44270925 79.66582076 409.97073113 76.6498183 405.49874675 C76.05207599 404.61244579 75.45433368 403.72614482 74.83847797 402.81298625 C71.19321933 397.40794124 67.54813295 392.0027801 63.90317523 386.59753215 C51.56993952 368.30811671 39.23470824 350.02005645 26.8920058 331.737028 C17.59697508 317.96846217 8.3054128 304.19756315 -0.9829942 290.424528 C-2.19035032 288.63432574 -3.39770709 286.84412392 -4.60506451 285.05392253 C-10.19185901 276.76988645 -15.77802056 268.48542509 -21.3620683 260.19953716 C-22.64191951 258.30061673 -23.92195785 256.40182239 -25.2021867 254.50315654 C-28.30741141 249.89781679 -31.41043736 245.29103436 -34.50814068 240.68063152 C-39.69999623 232.96017864 -44.91054568 225.260044 -50.27596295 217.658903 C-51.10470159 216.47632492 -51.9331649 215.29355382 -52.76131451 214.11056316 C-54.23060272 212.02095768 -55.71453499 209.94153261 -57.21639264 207.8752116 C-57.83933209 206.98656414 -58.46227154 206.09791667 -59.10408795 205.1823405 C-59.64219098 204.43484539 -60.180294 203.68735027 -60.73470318 202.91720378 C-61.6079942 200.737028 -61.6079942 200.737028 -60.92195904 198.20870769 C-59.72971947 195.96600359 -58.50754715 193.85007814 -57.08846295 191.7448405 C-56.57195172 190.97390056 -56.05544049 190.20296062 -55.5232774 189.40865886 C-54.95310894 188.56827068 -54.38294049 187.72788249 -53.7954942 186.862028 C-53.1872984 185.95783123 -52.5791026 185.05363445 -51.95247662 184.12203777 C-50.22319634 181.55448678 -48.48930723 178.99012566 -46.75289166 176.42739666 C-45.56711997 174.67667979 -44.38278606 172.92499787 -43.19881451 171.17306316 C-37.44880947 162.66537754 -31.68644681 154.16611172 -25.91970074 145.66976726 C-23.84785734 142.61700131 -21.77679998 139.56370223 -19.70565045 136.5104655 C-14.61883033 129.01213661 -9.53008469 121.51511507 -4.44124615 114.01815593 C-1.70500624 109.98705244 1.03109899 105.95585758 3.7670058 101.924528 C4.15583942 101.35159008 4.54467304 100.77865215 4.94528949 100.18835247 C10.82263915 91.52777005 16.6947189 82.86362887 22.56403339 74.19759929 C23.8863043 72.24544549 25.20881636 70.29345529 26.5314101 68.34152019 C27.40812639 67.04757983 28.28483539 65.75363453 29.16153705 64.45968425 C29.8104919 63.50187557 29.8104919 63.50187557 30.47255695 62.52471721 C33.08538181 58.66773791 35.69576782 54.8091209 38.30440509 50.94930828 C40.39480121 47.85683179 42.48696651 44.76555455 44.5795058 41.674528 C45.17428226 40.79537731 45.17428226 40.79537731 45.7810744 39.89846599 C51.01256188 32.17023997 56.32416692 24.51533136 61.87247455 17.0104655 C63.57723539 14.91564796 63.57723539 14.91564796 63.3920058 12.737028 C47.33872069 11.72346677 31.29604185 10.97032312 15.2183274 10.50910461 C7.74785507 10.2890095 0.29761642 9.98957097 -7.15999615 9.49313152 C-47.83203452 6.83909286 -71.84220414 10.01868694 -90.14229596 50.46749675 Z " fill="#F8F8F8" transform="translate(767.6079941987991,282.26297199726105)"/>
<path d="M0 0 C109.23 0 218.46 0 331 0 C331 96.05679899 331 96.05679899 303.3125 126.41015625 C300.21854328 129.87517873 297.30527729 133.47222717 294.3828125 137.08203125 C291.79244152 140.25417407 289.15317133 143.38043294 286.5 146.5 C282.37994164 151.34800649 278.3320357 156.24846418 274.31640625 161.18359375 C271.72212734 164.33785192 269.08393735 167.4520298 266.4375 170.5625 C263.23260809 174.33088939 260.07312306 178.12246028 257 182 C253.47116597 186.45253701 249.81770671 190.78685979 246.13671875 195.11328125 C243.21995487 198.54571609 240.34306574 202.00592815 237.5 205.5 C234.21175802 209.53984014 230.87250183 213.53067248 227.5 217.5 C218.74971218 227.81089682 210.35946924 238.36067551 202 249 C244.57 249 287.14 249 331 249 C331 295.86 331 342.72 331 391 C221.77 391 112.54 391 0 391 C0 298.10865874 0 298.10865874 22 272 C22.63929443 271.24130615 22.63929443 271.24130615 23.29150391 270.46728516 C25.14302202 268.27232413 26.99759115 266.08001313 28.85742188 263.89208984 C33.30998119 258.65278854 37.66308576 253.33534054 42 248 C47.23789344 241.55626059 52.5338025 235.16983338 57.90917969 228.84082031 C62.3405996 223.61552812 66.67844842 218.31644115 71 213 C75.7797175 207.11991588 80.59473597 201.27559389 85.5 195.5 C89.55000511 190.73078305 93.54351856 185.92087884 97.49609375 181.0703125 C105.80516807 170.88165038 114.16688264 160.74037478 122.6953125 150.734375 C124.83892513 148.19110578 126.92216872 145.5972891 129 143 C86.43 142.67 43.86 142.34 0 142 C0 95.14 0 48.28 0 0 Z M8 10 C8 50.59 8 91.18 8 133 C54.53 133 101.06 133 149 133 C140.19282511 144.00896861 140.19282511 144.00896861 135.6875 149.25 C131.88092289 153.70495743 128.21204647 158.24186735 124.625 162.875 C120.17085333 168.61873736 115.49070264 174.12734753 110.70458984 179.59619141 C106.0099428 184.96410722 101.48121191 190.45262615 97 196 C91.76425093 202.44545282 86.46616505 208.83020484 81.09082031 215.15917969 C76.6594004 220.38447188 72.32155158 225.68355885 68 231 C62.76210656 237.44373941 57.4661975 243.83016662 52.09082031 250.15917969 C46.88992434 256.2917967 41.80878331 262.52082765 36.7578125 268.77734375 C33.0999151 273.28959434 29.40705894 277.6300931 25.375 281.8125 C2.12877291 307.65064091 8 351.07413603 8 381 C111.95 381 215.9 381 323 381 C323 340.74 323 300.48 323 259 C276.14 259 229.28 259 181 259 C185.06144905 253.77813694 189.07532726 248.63164434 193.375 243.625 C196.79266835 239.61662354 200.1758062 235.58673289 203.5 231.5 C207.24852646 226.8946675 211.07084246 222.35795556 214.91625977 217.83374023 C217.7954532 214.44045891 220.63204237 211.01732214 223.4375 207.5625 C227.39443418 202.69950576 231.46435942 197.94299797 235.55615234 193.19384766 C239.35163367 188.77968234 243.05277913 184.29666802 246.72265625 179.77734375 C249.28204054 176.65603633 251.88593791 173.5754997 254.5 170.5 C257.87283589 166.53096457 261.21176645 162.53982979 264.5 158.5 C268.24787798 153.8954642 272.06983444 149.35980809 275.9140625 144.8359375 C278.81244823 141.4194046 281.671551 137.97495162 284.5 134.5 C287.8365428 130.40406484 291.21391181 126.34631617 294.625 122.3125 C295.09317139 121.75780029 295.56134277 121.20310059 296.04370117 120.6315918 C298.57897073 117.63862121 301.16762246 114.70843656 303.8125 111.8125 C307.53058371 107.57086751 310.3230417 102.95125435 313 98 C313.64775391 96.83984375 313.64775391 96.83984375 314.30859375 95.65625 C327.82871435 69.03719636 323 38.66781674 323 10 C219.05 10 115.1 10 8 10 Z " fill="#F5F5F5" transform="translate(99,285)"/>
</svg>
