<?xml version="1.0" encoding="UTF-8"?>
<svg version="1.1" xmlns="http://www.w3.org/2000/svg" width="266" height="310">
<path d="M0 0 C3.74993541 1.86596541 7.30348406 4.00270947 10.875 6.1875 C13.02741545 7.47471588 15.18110134 8.75980933 17.3359375 10.04296875 C18.99061035 11.03176025 18.99061035 11.03176025 20.67871094 12.04052734 C25.90032934 15.12114402 31.19804275 18.0605362 36.5 21 C45.73020681 26.13467032 54.87240856 31.40214815 63.98046875 36.75 C71.10528808 40.92244321 78.28559452 44.98470458 85.5 49 C94.10990622 53.79509924 102.67212909 58.66378023 111.1875 63.625 C112.68410156 64.49511719 112.68410156 64.49511719 114.2109375 65.3828125 C115.14550781 65.929375 116.08007812 66.4759375 117.04296875 67.0390625 C117.85789795 67.51553223 118.67282715 67.99200195 119.51245117 68.48291016 C120.33334229 68.9835498 121.1542334 69.48418945 122 70 C123.53507706 70.717892 123.53507706 70.717892 125.10116577 71.45028687 C128.27654156 74.24323628 128.44417111 74.59782345 128.80125427 78.55078125 C128.85481457 80.47073959 128.87477938 82.39180374 128.86889648 84.3125 C128.88851912 85.36791992 128.90814177 86.42333984 128.92835903 87.51074219 C128.98369503 91.00757245 128.9939354 94.50276062 129 98 C129.02091479 100.40495744 129.04291285 102.80990569 129.06594849 105.21484375 C129.1201449 112.4388009 129.11639616 119.66211885 129.10139394 126.88616562 C129.09501539 130.49352566 129.09454542 134.10088714 129.09336853 137.70825195 C129.09029696 144.49670159 129.0821417 151.28513454 129.07201904 158.07357693 C129.0607259 165.8200539 129.05531467 173.56653179 129.05032361 181.31301498 C129.03995408 197.20868622 129.02243821 213.10434093 129 229 C128.25182259 229.43115616 127.50364517 229.86231232 126.73279572 230.30653381 C123.92346606 231.92571177 121.11432476 233.54521591 118.30530548 235.16493225 C117.09579485 235.86226507 115.88621195 236.55947257 114.67655182 237.25654602 C106.24902142 242.11310372 97.84911139 247.00955101 89.5 252 C79.56615807 257.91132272 69.58345841 263.73080867 59.56298828 269.49389648 C52.31971591 273.6597931 45.09067479 277.8489802 37.875 282.0625 C36.90844482 282.62686768 35.94188965 283.19123535 34.94604492 283.77270508 C31.96375756 285.51467098 28.9818396 287.25726774 26 289 C21.54213762 291.60497387 17.08370633 294.20897097 12.625 296.8125 C11.58972168 297.41779541 10.55444336 298.02309082 9.48779297 298.64672852 C8.05910889 299.48095337 8.05910889 299.48095337 6.6015625 300.33203125 C5.75932129 300.82421143 4.91708008 301.3163916 4.04931641 301.82348633 C0.26437563 303.9964229 -2.65625429 304.82709948 -7 304 C-10.81855975 302.27663384 -14.31859679 300.08076397 -17.875 297.875 C-20.01821186 296.58374505 -22.16278762 295.29475168 -24.30859375 294.0078125 C-25.41058105 293.34297852 -26.51256836 292.67814453 -27.64794922 291.99316406 C-33.01616765 288.80116586 -38.47516076 285.77713366 -43.9375 282.75 C-51.33362773 278.63241995 -58.70297353 274.47866474 -66 270.1875 C-66.70632568 269.77274414 -67.41265137 269.35798828 -68.14038086 268.93066406 C-72.86701121 266.13298879 -72.86701121 266.13298879 -74 265 C-74.09436529 262.76070114 -74.11742327 260.5183825 -74.11352539 258.27709961 C-74.11367142 257.5746965 -74.11381744 256.8722934 -74.1139679 256.14860535 C-74.11326872 253.81648722 -74.10547617 251.484448 -74.09765625 249.15234375 C-74.09579208 247.53951562 -74.09436818 245.92668693 -74.09336853 244.31385803 C-74.08954323 240.06084643 -74.07971285 235.80786876 -74.06866455 231.55487061 C-74.05845069 227.2182257 -74.05387096 222.88157533 -74.04882812 218.54492188 C-74.03809059 210.02993231 -74.02101403 201.51497037 -74 193 C-74.77002853 192.69850037 -75.54005707 192.39700073 -76.3334198 192.08636475 C-79.20772651 190.91537222 -81.83758117 189.52247375 -84.55078125 188.015625 C-86.17077026 187.1169873 -86.17077026 187.1169873 -87.82348633 186.20019531 C-88.97486084 185.55663086 -90.12623535 184.91306641 -91.3125 184.25 C-92.19764786 183.75711487 -92.19764786 183.75711487 -93.10067749 183.25427246 C-102.91171295 177.79071812 -112.63758191 172.19107968 -122.30786133 166.48144531 C-123.69654419 165.66305176 -123.69654419 165.66305176 -125.11328125 164.828125 C-126.31658081 164.1151123 -126.31658081 164.1151123 -127.54418945 163.38769531 C-130.31530611 161.8218312 -133.14950913 160.4152446 -136 159 C-136.30171998 148.18670952 -136.53244175 137.37442549 -136.67355824 126.5577774 C-136.74130477 121.53439805 -136.83310557 116.51390514 -136.98071289 111.4921875 C-137.12238139 106.64194121 -137.19977096 101.79446243 -137.23340416 96.94230652 C-137.25735587 95.09519355 -137.30413814 93.24822607 -137.37449074 91.40229797 C-137.80395544 79.662791 -137.80395544 79.662791 -136 75 C-132.08146422 70.99234844 -128.17677464 69.16716547 -123 67 C-121.09196165 65.91055718 -119.19676991 64.79780608 -117.32421875 63.6484375 C-115.4462386 62.55569852 -113.56730661 61.46459399 -111.6875 60.375 C-109.58721466 59.1536887 -107.48695497 57.93233327 -105.38671875 56.7109375 C-104.32759277 56.09573242 -103.2684668 55.48052734 -102.17724609 54.84667969 C-97.11448087 51.90409815 -92.05743651 48.95172724 -87 46 C-85.00002954 44.83328269 -83.00002949 43.66661611 -81 42.5 C-79.515 41.63375 -79.515 41.63375 -78 40.75 C-69 35.5 -69 35.5 -65.99902344 33.74951172 C-64.00218415 32.58463462 -62.00543911 31.41959596 -60.00878906 30.25439453 C-54.9611967 27.30900499 -49.9119177 24.36657819 -44.859375 21.4296875 C-43.84738037 20.8406665 -42.83538574 20.25164551 -41.79272461 19.64477539 C-39.78177807 18.47512511 -37.76959081 17.30760507 -35.75610352 16.14233398 C-30.8825867 13.31162794 -26.056843 10.43006757 -21.29296875 7.41796875 C-20.38901367 6.85287598 -19.48505859 6.2877832 -18.55371094 5.70556641 C-16.86041618 4.64212167 -15.17666173 3.5632667 -13.50488281 2.46630859 C-8.61303663 -0.59083451 -5.75671574 -1.9126952 0 0 Z M-10.0390625 41.7890625 C-11.0820752 42.39371338 -12.12508789 42.99836426 -13.19970703 43.62133789 C-14.33005371 44.28254639 -15.46040039 44.94375488 -16.625 45.625 C-17.80431143 46.31083241 -18.98383909 46.99629315 -20.16357422 47.68139648 C-23.19615659 49.44391442 -26.2257182 51.21155426 -29.25439453 52.98077393 C-31.90774346 54.53001427 -34.56334058 56.0753885 -37.21875 57.62109375 C-42.15625724 60.49684275 -47.09023471 63.37859364 -52.0234375 66.26171875 C-55.03513124 68.02051627 -58.04854184 69.77633606 -61.0625 71.53125 C-71.20100363 77.43540388 -81.33000763 83.35538324 -91.4375 89.3125 C-92.8598999 90.14890015 -92.8598999 90.14890015 -94.31103516 91.00219727 C-95.17647949 91.51322998 -96.04192383 92.0242627 -96.93359375 92.55078125 C-98.0791272 93.22620972 -98.0791272 93.22620972 -99.24780273 93.9152832 C-100.95754322 94.88119988 -100.95754322 94.88119988 -102 96 C-102.58487359 101.67401884 -102.82790228 107.34347714 -103.00927734 113.04321289 C-103.08584523 114.95821776 -103.19476179 116.87222777 -103.33740234 118.78344727 C-104.42250305 129.40278816 -104.42250305 129.40278816 -100.45056152 138.79473877 C-96.42109324 142.01665518 -91.91204078 144.10263741 -87.17132568 146.07376099 C-84.11940862 147.3756406 -81.31794414 148.97960334 -78.4375 150.625 C-76.95998318 151.41974159 -75.48155993 152.21282129 -74 153 C-74.11110107 151.81148438 -74.22220215 150.62296875 -74.33666992 149.3984375 C-77.16211337 115.54556701 -77.16211337 115.54556701 -70.72167969 107.68212891 C-64.60369578 102.36848907 -57.27839318 99.4402458 -49.79931641 96.56445312 C-43.56673094 94.10485424 -37.97645386 90.50884393 -32.25 87.0625 C-30.10772777 85.83199622 -27.96327272 84.60528303 -25.81640625 83.3828125 C-22.23464921 81.32099355 -18.70096982 79.21178479 -15.21484375 76.9921875 C-14.52036133 76.55382568 -13.82587891 76.11546387 -13.11035156 75.66381836 C-11.34862405 74.54025852 -9.60125789 73.39426222 -7.85546875 72.24609375 C-5 71 -5 71 -2.64111328 71.74926758 C0.00437173 73.00207029 2.56008694 74.3339981 5.11328125 75.765625 C6.10207275 76.31903564 7.09086426 76.87244629 8.10961914 77.44262695 C9.16656982 78.03906006 10.22352051 78.63549316 11.3125 79.25 C12.41392334 79.8689917 13.51534668 80.4879834 14.65014648 81.12573242 C23.25854083 85.97956463 31.81133518 90.92629541 40.32739258 95.94042969 C41.23126709 96.4718457 42.1351416 97.00326172 43.06640625 97.55078125 C43.93187073 98.08039459 44.79733521 98.61000793 45.68902588 99.15567017 C48.16064483 100.53244945 50.40637629 101.60027124 53.00914001 102.63638306 C63.61769103 107.1576147 63.61769103 107.1576147 65.9280262 111.90826225 C67.4119289 117.51923519 67.13170781 123.28006665 67 129.03515625 C67.01505429 130.88324293 67.03713768 132.73128448 67.06591797 134.57920837 C67.12257494 139.41918953 67.08437106 144.25385326 67.02575684 149.09362793 C66.98283284 154.0412797 67.0304924 158.98799158 67.0703125 163.93554688 C67.13505513 173.62489529 67.09950394 183.3110426 67 193 C66.22709625 193.30215424 65.4541925 193.60430847 64.65786743 193.9156189 C61.8716157 195.0523794 59.37699282 196.4063446 56.7734375 197.9140625 C55.75443359 198.5026001 54.73542969 199.0911377 53.68554688 199.69750977 C52.59306641 200.33358154 51.50058594 200.96965332 50.375 201.625 C49.23869141 202.28363037 48.10238281 202.94226074 46.93164062 203.62084961 C36.23780531 209.82718229 25.59701698 216.12360938 14.96875 222.44140625 C13.96070313 223.0358252 12.95265625 223.63024414 11.9140625 224.24267578 C9.99062087 225.40260648 8.08842663 226.598619 6.2109375 227.83154297 C5.34726563 228.39115723 4.48359375 228.95077148 3.59375 229.52734375 C2.84802734 230.0287085 2.10230469 230.53007324 1.33398438 231.04663086 C-1.86938931 232.35512189 -3.68662816 231.90900606 -7 231 C-9.84912109 229.66479492 -9.84912109 229.66479492 -12.7734375 227.98046875 C-13.8459375 227.37009766 -14.9184375 226.75972656 -16.0234375 226.13085938 C-17.12945312 225.48955078 -18.23546875 224.84824219 -19.375 224.1875 C-21.56936944 222.92934334 -23.76466202 221.67279521 -25.9609375 220.41796875 C-26.99444336 219.82677246 -28.02794922 219.23557617 -29.09277344 218.62646484 C-32.67403328 216.62290815 -36.30536791 214.78439044 -40 213 C-41.47574222 223.16559354 -42.93748848 234.00111339 -40 244 C-34.82559544 250.58132458 -26.91575874 253.66542473 -19.27148438 256.58374023 C-15.71311507 258.12419549 -12.75415996 260.12502727 -9.51953125 262.25390625 C-5.75363025 264.30864903 -4.01998799 265.21781034 0.21264648 264.31396484 C3.72051188 262.61261966 6.90754061 260.61895684 10.125 258.4375 C11.3395503 257.67176774 12.55757233 256.91151753 13.77880859 256.15649414 C16.30186956 254.58775253 18.80518871 252.99308922 21.296875 251.375 C26.96356011 247.71224196 32.80364848 244.34730653 38.625 240.9375 C40.85486446 239.61185013 43.08403212 238.28502749 45.3125 236.95703125 C53.04580795 232.36622959 60.83442649 227.87307189 68.63525391 223.39819336 C70.58081154 222.28129916 72.51519328 221.14465761 74.43655396 219.9866333 C76.98565432 218.49937898 79.56004353 217.31787381 82.28399658 216.18537903 C90.48977719 212.61882416 90.48977719 212.61882416 95.9526329 205.90618134 C97.42432106 199.72749504 96.9749535 193.42332154 96.6953125 187.12890625 C96.66606773 185.08130407 96.64430088 183.03358289 96.62960815 180.98582458 C96.57056431 175.60227748 96.40889005 170.22656431 96.22558594 164.8460083 C96.0596806 159.43022583 95.99374999 154.01335817 95.91796875 148.59570312 C95.76279439 138.81333778 95.55668217 129.03488919 95.17950439 119.2583313 C95.0429383 115.69872532 94.98321336 112.1482703 94.97235107 108.58615112 C94.94275318 106.87244972 94.91276169 105.15875506 94.88232422 103.44506836 C94.90050548 102.27816766 94.90050548 102.27816766 94.91905403 101.08769321 C94.83632914 98.02631097 94.62442257 95.68290057 92.5103035 93.37079144 C89.40095253 90.95918795 86.12276389 89.10053654 82.5 87.55859375 C76.59280721 84.88748682 71.05854908 81.67169003 65.46292114 78.4067688 C62.45379168 76.65804236 59.42742607 74.93968115 56.40234375 73.21875 C55.16645639 72.51440629 53.93061661 71.80997907 52.69482422 71.10546875 C50.85853159 70.05902687 49.0222017 69.01265041 47.18585205 67.96630859 C43.62443534 65.93694521 40.06346641 63.90680063 36.50326538 61.87530518 C34.76192552 60.88180397 33.02024612 59.88889796 31.27856445 58.89599609 C25.4917543 55.59077171 19.72070579 52.26148903 13.9765625 48.8828125 C12.30835449 47.90272217 12.30835449 47.90272217 10.60644531 46.90283203 C8.49662921 45.66046978 6.3890959 44.41422033 4.28417969 43.16357422 C2.8866748 42.34010498 2.8866748 42.34010498 1.4609375 41.5 C0.64415527 41.0153125 -0.17262695 40.530625 -1.01416016 40.03125 C-4.78772028 38.07163383 -6.5766183 39.77256681 -10.0390625 41.7890625 Z M-10.56640625 114.0703125 C-12.25540039 115.04484375 -12.25540039 115.04484375 -13.97851562 116.0390625 C-14.86277222 116.55388184 -14.86277222 116.55388184 -15.76489258 117.07910156 C-17.52830058 118.10510182 -19.29596876 119.12340568 -21.06445312 120.140625 C-23.34352381 121.46070002 -25.60830821 122.80577729 -27.85742188 124.17626953 C-31 126 -31 126 -33.79882812 127.13232422 C-36.72722669 128.46547941 -38.12900437 129.35664705 -40 132 C-41.55586482 137.56655669 -41.46135872 143.36749258 -41.39306641 149.10302734 C-41.37505383 151.86674076 -41.47406341 154.6097792 -41.58203125 157.37109375 C-41.866746 166.8534581 -41.866746 166.8534581 -37.41967773 174.78295898 C-34.03748829 176.86673056 -30.64724637 178.43319711 -27 180 C-24.99475679 181.23153648 -23.01021191 182.49758752 -21.05078125 183.80078125 C-19.13936533 184.9735483 -17.2266153 186.1441439 -15.3125 187.3125 C-13.88067383 188.25125977 -13.88067383 188.25125977 -12.41992188 189.20898438 C-7.31035532 192.38547668 -7.31035532 192.38547668 -1.52709961 192.50830078 C1.1624577 191.2084703 3.52877266 189.67837618 6 188 C8.13254612 186.74807334 10.26951566 185.5036602 12.41015625 184.265625 C14.6299001 182.9308942 16.84732295 181.59229643 19.0625 180.25 C20.21270566 179.55828609 21.36309531 178.86687803 22.51367188 178.17578125 C27.52168999 175.44584174 27.52168999 175.44584174 32 172 C32.08871273 168.97022196 32.1151935 165.96332978 32.09765625 162.93359375 C32.0962413 162.02497086 32.09482635 161.11634796 32.09336853 160.18019104 C32.08775193 157.26592779 32.07519665 154.35174019 32.0625 151.4375 C32.05748714 149.46679798 32.05292386 147.49609476 32.04882812 145.52539062 C32.03777711 140.68356441 32.02050138 135.84179505 32 131 C31.18845459 130.53625977 30.37690918 130.07251953 29.54077148 129.59472656 C4 115 4 115 2.08938599 113.86804199 C-3.70582156 110.46067069 -4.83231371 110.75712045 -10.56640625 114.0703125 Z " fill="#F8690C" transform="translate(137,6)"/>
</svg>
