<?xml version="1.0" encoding="UTF-8"?>
<svg version="1.1" xmlns="http://www.w3.org/2000/svg" width="460" height="460">
<path d="M0 0 C151.8 0 303.6 0 460 0 C460 151.8 460 303.6 460 460 C308.2 460 156.4 460 0 460 C0 308.2 0 156.4 0 0 Z " fill="#0C0C0C" transform="translate(0,0)"/>
<path d="M0 0 C3.42822212 1.19509623 5.65667898 3.92169324 8.15431446 6.45797944 C8.76265363 7.06375534 9.3709928 7.66953124 9.99776649 8.29366398 C12.03998513 10.3309306 14.07127807 12.37875505 16.10281605 14.42666841 C17.56261079 15.88730916 19.02306604 17.34729005 20.48413318 18.80665803 C24.45572778 22.77738983 28.41798574 26.75732307 32.3786785 30.73892522 C36.52298838 34.90197134 40.67577828 39.05654043 44.82768482 43.21200776 C52.69704478 51.09070354 60.55872709 58.97701471 68.41769934 66.86607075 C77.34338419 75.82518968 86.27749824 84.77588222 95.21237499 93.7258327 C110.48714421 109.02666896 125.75553741 124.33384371 141.01692432 139.64802766 C141.66182679 140.29514891 142.30672927 140.94227017 142.97117424 141.60900116 C144.15542164 142.79735857 145.33962543 143.98575945 146.52377355 145.17421579 C151.16014373 149.82687752 155.79700508 154.47796971 160.48929065 159.07437348 C164.6497124 163.15521591 168.79941234 167.24673631 172.9411549 171.34652257 C175.43966891 173.81880526 177.94271586 176.28613505 180.45608753 178.7433188 C183.36325837 181.58594524 186.25012894 184.44842729 189.13626331 187.31241059 C190.49852543 188.63596307 190.49852543 188.63596307 191.88830799 189.98625398 C192.71311664 190.81068498 193.5379253 191.63511598 194.38772815 192.48452973 C195.12099323 193.20669175 195.85425831 193.92885377 196.60974354 194.67289948 C198.05032581 196.71475434 198.05032581 196.71475434 198.0280785 198.70901704 C196.75229235 201.32613271 195.13899935 202.98512871 193.0688805 205.03677583 C192.22420215 205.88122758 191.37952381 206.72567933 190.50924915 207.59572053 C189.12966022 208.95208367 189.12966022 208.95208367 187.72220081 210.33584809 C186.77088236 211.28156499 185.82022877 212.22795113 184.87021106 213.17497468 C182.36668787 215.66705179 179.85429935 218.15000127 177.33993763 220.63113618 C174.79665526 223.14386891 172.26170077 225.66497048 169.72610706 228.18545747 C166.00504239 231.88267344 162.27951809 235.57530182 158.54934925 239.26333833 C155.37306029 242.40400084 152.20408175 245.55143621 149.05032581 248.71475434 C142.71699248 255.04808768 136.38365914 261.38142101 130.05032581 267.71475434 C131.52777864 271.1920608 133.47106103 273.29811454 136.21829456 275.86709809 C137.02847034 276.64375825 137.83864612 277.42041841 138.67337269 278.22061372 C140.38724666 279.84572651 142.10867426 281.46290891 143.83743519 283.07217622 C144.64374378 283.85012544 145.45005237 284.62807466 146.28079456 285.42959809 C147.02740345 286.13205659 147.77401233 286.83451509 148.54324573 287.5582602 C150.05032581 289.71475434 150.05032581 289.71475434 149.89822811 292.06618237 C148.85074572 295.33817786 147.42471119 296.83053483 144.99096912 299.24839997 C144.1162244 300.12719819 143.24147968 301.00599641 142.34022754 301.91142488 C141.36340217 302.8724992 140.38639088 303.83338461 139.40921253 304.79410005 C138.38508699 305.81545935 137.36184917 306.83770943 136.33943409 307.86078095 C133.5606988 310.63639157 130.76987633 313.39955835 127.97689813 316.16082621 C125.05122498 319.05773403 122.13729993 321.96640812 119.22223133 324.87397981 C113.69222059 330.38638659 108.15252658 335.88894931 102.60892731 341.38768715 C94.49371497 349.43789799 86.39089045 357.50056223 78.29068416 365.56586957 C77.69470074 366.15928358 77.09871732 366.75269759 76.4846738 367.36409384 C75.29532702 368.54834108 74.10601386 369.73262208 72.91673523 370.91693777 C69.44897163 374.36951647 65.97768292 377.81849993 62.50324935 381.26436603 C60.33266238 383.41782271 58.16410843 385.57331905 55.99593776 387.72920823 C54.99679609 388.72173661 53.99676117 389.71336681 52.99572414 390.70398355 C47.97535839 395.67275892 43.0857571 400.68055396 38.4869923 406.04371953 C36.76469206 408.0469845 34.96506158 409.95926181 33.12210315 411.85171723 C32.43804401 412.555067 31.75398487 413.25841676 31.04919666 413.98308015 C27.98691398 417.10397287 24.91945876 420.21960051 21.84329456 423.32681489 C20.22148129 424.97040736 18.60597398 426.62024449 16.99661487 428.27603364 C14.66155282 430.6776426 12.3077178 433.05929466 9.94876331 435.43741059 C9.23094684 436.18305772 8.51313038 436.92870484 7.77356189 437.69694734 C7.09580707 438.37192765 6.41805225 439.04690797 5.7197594 439.74234223 C5.13020466 440.34220445 4.54064991 440.94206666 3.93322986 441.56010652 C2.05032581 442.71475434 2.05032581 442.71475434 -0.17818981 442.64349866 C-4.04008763 441.34934897 -6.37830665 438.8451483 -9.17632824 436.00949311 C-9.78567168 435.40780077 -10.39501512 434.80610842 -11.02282351 434.18618298 C-13.06454528 432.16511871 -15.0916651 430.13001792 -17.11910778 428.09463716 C-18.57876392 426.64367395 -20.03925424 425.1935495 -21.50051647 423.74420381 C-25.4683242 419.80320812 -29.42319148 415.84946293 -33.37508112 411.89251256 C-36.6720133 408.5934438 -39.97487246 405.30034088 -43.27766436 402.00714016 C-51.06580403 394.2412005 -58.84322473 386.46463848 -66.61422497 378.68155122 C-74.64088455 370.64279971 -82.68574698 362.62260084 -90.73970693 354.61120939 C-97.64736203 347.73872984 -104.54340775 340.85475253 -111.430237 333.96140385 C-115.54656251 329.84144434 -119.66726199 325.72610848 -123.79923397 321.62183595 C-127.68185929 317.76426768 -131.54983562 313.89259816 -135.40683514 310.009413 C-136.82751064 308.58398554 -138.25336233 307.1636963 -139.68460995 305.74888444 C-141.63219069 303.82207097 -143.56050727 301.87786025 -145.48492199 299.92795014 C-146.06028458 299.36733612 -146.63564717 298.8067221 -147.22844499 298.22911978 C-148.77531773 296.63857102 -148.77531773 296.63857102 -150.94967419 293.71475434 C-150.89531271 290.27071526 -150.27088478 289.11239296 -148.10787731 286.43472505 C-147.32348278 285.67764253 -146.53908825 284.92056001 -145.73092419 284.14053559 C-144.881432 283.30844575 -144.03193981 282.47635591 -143.15670544 281.61905122 C-141.81672497 280.33611176 -141.81672497 280.33611176 -140.44967419 279.02725434 C-138.68730789 277.31702153 -136.92679283 275.60487831 -135.16842419 273.89053559 C-134.38402966 273.13683686 -133.59963513 272.38313813 -132.79147106 271.60660005 C-130.88650481 269.84131855 -130.88650481 269.84131855 -129.94967419 267.71475434 C-130.47946377 267.50897264 -131.00925335 267.30319093 -131.55509716 267.09117341 C-134.94942595 265.14009027 -137.51709668 262.44213172 -140.26290661 259.69204926 C-141.1977161 258.76731561 -141.1977161 258.76731561 -142.15141064 257.82390046 C-144.2079914 255.78630381 -146.25695819 253.74125702 -148.30514294 251.69522309 C-149.73177769 250.27501471 -151.15856305 248.8549576 -152.58549267 247.43504548 C-155.57399017 244.45852089 -158.55832614 241.47789268 -161.54025036 238.49478364 C-165.36358419 234.67124634 -169.20050054 230.86166203 -173.04110008 227.05547833 C-175.99128155 224.12751943 -178.93234278 221.19053022 -181.8709026 218.25091195 C-183.28190039 216.84227596 -184.69614637 215.43688589 -186.11366612 214.03481317 C-188.09360535 212.07444381 -190.06049853 210.10183748 -192.02462536 208.12564301 C-192.90747708 207.25964982 -192.90747708 207.25964982 -193.80816418 206.37616181 C-196.89128251 203.24461769 -198.67402952 201.14593743 -198.94967419 196.71475434 C-197.79611862 194.76097554 -197.79611862 194.76097554 -196.01001984 192.90803647 C-195.3576386 192.218433 -194.70525735 191.52882952 -194.03310698 190.81832898 C-193.00180775 189.77705953 -193.00180775 189.77705953 -191.94967419 188.71475434 C-191.32636318 188.06796129 -190.70305217 187.42116824 -190.06085294 186.7547754 C-188.0544498 184.69071726 -186.02277317 182.65446228 -183.98414379 180.6222403 C-182.82572726 179.46148379 -182.82572726 179.46148379 -181.64390838 178.27727765 C-179.07461006 175.70401408 -176.50178037 173.13431179 -173.92892224 170.56460786 C-172.07873445 168.71306411 -170.22875926 166.86130789 -168.37898022 165.00935578 C-163.88886916 160.51481351 -159.39607779 156.02295994 -154.90229794 151.53208614 C-151.25171067 147.88376165 -147.60210596 144.23445694 -143.95319325 140.58445764 C-143.43295121 140.06406236 -142.91270917 139.54366709 -142.37670222 139.00750227 C-141.31976619 137.9502465 -140.2628324 136.8929885 -139.20590083 135.83572828 C-129.31266859 125.93964945 -119.41638197 116.04662965 -109.51903675 106.15466457 C-101.02306502 97.66316805 -92.52972961 89.16904205 -84.03829724 80.6730063 C-74.17125775 70.80062017 -64.3026046 60.92985176 -54.4313544 51.06167573 C-53.37992627 50.01056615 -52.32850023 48.95945448 -51.2770763 47.90834069 C-50.50111672 47.13261252 -50.50111672 47.13261252 -49.70948118 46.34121307 C-46.06006729 42.69266347 -42.41181682 39.04295303 -38.76401097 35.3927958 C-33.86213491 30.48782932 -28.95762682 25.58550804 -24.05130726 20.68498635 C-22.24681578 18.88182221 -20.44318413 17.07779716 -18.64045483 15.27287126 C-16.18936067 12.81906483 -13.73524008 10.36832703 -11.28028637 7.91838288 C-10.55938861 7.1952544 -9.83849085 6.47212592 -9.09574771 5.72708446 C-8.44120414 5.07514863 -7.78666056 4.42321281 -7.11228234 3.75152135 C-6.54573691 3.18513827 -5.97919148 2.6187552 -5.39547801 2.035209 C-3.5046023 0.30826956 -2.58328606 -0.37794578 0 0 Z " fill="#F3F3F2" transform="translate(232.94967418909073,10.285245656967163)"/>
<path d="M0 0 C5.15320955 4.31227549 9.97347273 8.83302993 14.71324158 13.59298706 C15.45834553 14.33723659 16.20344948 15.08148611 16.97113234 15.84828866 C19.45310472 18.32862135 21.93149942 20.81249748 24.40991211 23.29638672 C26.19395831 25.08071514 27.97822504 26.8648231 29.76269531 28.64872742 C33.59680984 32.48261464 37.42939224 36.31802307 41.26057243 40.15484238 C46.79973008 45.70214778 52.34166664 51.24667015 57.88427228 56.79053022 C66.87801349 65.7864568 75.86952203 74.78461148 84.85961914 83.78417969 C93.58956307 92.52331105 102.32056294 101.26138523 111.05297852 109.99804688 C111.59178565 110.53711673 112.13059279 111.07618659 112.68572741 111.6315919 C115.38893263 114.33610222 118.09215856 117.04059184 120.79539478 119.74507117 C143.20014049 142.16017348 165.60122216 164.57893412 188 187 C187.06207369 188.10425042 186.12269046 189.20726345 185.18271446 190.30976963 C184.65975583 190.92414562 184.13679721 191.53852161 183.59799135 192.17151505 C181.17931933 194.9390553 178.60156889 197.52995417 175.99462891 200.11889648 C175.42804565 200.68562576 174.8614624 201.25235504 174.27770996 201.83625793 C172.42969132 203.68358747 170.57817097 205.52736301 168.7265625 207.37109375 C167.43454448 208.66124403 166.14274904 209.95161724 164.85116577 211.24220276 C161.47012957 214.61944189 158.08609986 217.99366562 154.70141602 221.36724854 C151.24052041 224.81786929 147.78249457 228.27136338 144.32421875 231.72460938 C137.55226856 238.48587186 130.77714917 245.24394899 124 252 C122.89661782 251.0636169 121.79458971 250.12563812 120.69311523 249.18701172 C120.07927475 248.66485077 119.46543427 248.14268982 118.83299255 247.60470581 C116.12047147 245.23001076 113.58776807 242.69567399 111.0625 240.125 C110.56943359 239.62742187 110.07636719 239.12984375 109.56835938 238.6171875 C108.37654008 237.41379715 107.18791322 236.20724635 106 235 C107.38624746 231.40961907 108.95175064 227.92488435 110.56420898 224.43115234 C118.19912701 207.65544673 119.21221855 191.61977463 113 174 C105.22865729 154.71946767 90.30042384 140.86634948 75.80984306 126.50566125 C73.3207322 124.03558776 70.84038516 121.55674209 68.35900879 119.0789032 C63.67635792 114.40550116 58.98613101 109.73978291 54.29298258 105.07692546 C48.95396793 99.77161767 43.62361691 94.45764078 38.29393291 89.1429621 C27.78605382 78.66501159 17.26856796 68.19676992 6.74398041 57.73560047 C5 56 5 56 3.5810318 54.20729351 C2.00768391 52.73968768 2.00768391 52.73968768 -0.44099998 53.09732533 C-3.35545583 54.1253853 -4.76533312 55.26483481 -6.94400024 57.4427948 C-7.69225067 58.18121109 -8.4405011 58.91962738 -9.21142578 59.68041992 C-10.01773438 60.49639648 -10.82404297 61.31237305 -11.65478516 62.15307617 C-12.51566742 63.00855545 -13.37654968 63.86403473 -14.26351929 64.74543762 C-16.62272335 67.09427288 -18.97259226 69.45174103 -21.31834078 71.81397033 C-23.78660603 74.2961261 -26.26505948 76.7680733 -28.74203491 79.24153137 C-32.91009586 83.40688856 -37.06999547 87.58026325 -41.22509766 91.75854492 C-45.9980073 96.55789949 -50.7830351 101.34489293 -55.57507861 106.12513751 C-60.20865312 110.74783484 -64.83355891 115.37911481 -69.45466232 120.0142765 C-71.40781651 121.97312195 -73.36376386 123.9291098 -75.32216263 125.88271141 C-105.63159026 156.12357978 -105.63159026 156.12357978 -116.1875 196.375 C-116.03384367 210.53932013 -111.42338779 222.49836167 -105 235 C-107.78358481 237.84137242 -110.57815727 240.67168155 -113.375 243.5 C-114.1690625 244.31082031 -114.963125 245.12164062 -115.78125 245.95703125 C-116.92207031 247.10751953 -116.92207031 247.10751953 -118.0859375 248.28125 C-118.7876709 248.99345703 -119.4894043 249.70566406 -120.21240234 250.43945312 C-122 252 -122 252 -124 252 C-125.27186584 250.70812988 -125.27186584 250.70812988 -126.81665039 248.81445312 C-132.17134096 242.52387846 -138.08342808 236.79299918 -143.93359375 230.96875 C-145.17934244 229.72486987 -146.42486795 228.48076619 -147.67018127 227.2364502 C-150.92461236 223.98580985 -154.18203681 220.73818572 -157.44012451 217.49121094 C-160.77376868 214.16785548 -164.10453077 210.8416142 -167.43554688 207.515625 C-173.95423646 201.00761191 -180.47609653 194.50278617 -187 188 C-182.68772451 182.84679045 -178.16697007 178.02652727 -173.40701294 173.28675842 C-172.66276341 172.54165447 -171.91851389 171.79655052 -171.15171134 171.02886766 C-168.67137865 168.54689528 -166.18750252 166.06850058 -163.70361328 163.59008789 C-161.91928486 161.80604169 -160.1351769 160.02177496 -158.35127258 158.23730469 C-154.51738536 154.40319016 -150.68197693 150.57060776 -146.84515762 146.73942757 C-141.29785222 141.20026992 -135.75332985 135.65833336 -130.20946978 130.11572772 C-121.2135432 121.12198651 -112.21538852 112.13047797 -103.21582031 103.14038086 C-94.47668895 94.41043693 -85.73861477 85.67943706 -77.00195312 76.94702148 C-76.46288327 76.40821435 -75.92381341 75.86940721 -75.3684081 75.31427259 C-72.66389778 72.61106737 -69.95940816 69.90784144 -67.25492883 67.20460522 C-44.83982652 44.79985951 -22.42106588 22.39877784 0 0 Z " fill="#0C0C0C" transform="translate(232,21)"/>
<path d="M0 0 C3.3111421 1.44560092 5.49397899 3.24472385 8.04048157 5.79324341 C8.83520874 6.58377609 9.62993591 7.37430878 10.44874573 8.188797 C11.74315834 9.49163887 11.74315834 9.49163887 13.0637207 10.82080078 C13.97964996 11.7348317 14.89557922 12.64886261 15.83926392 13.59059143 C18.35021349 16.0966959 20.85487057 18.60900383 23.35831857 21.12259912 C25.98494992 23.75802917 28.61686734 26.38817051 31.24809265 29.01901245 C35.67068434 33.44254078 40.08938745 37.86992341 44.50561523 42.29980469 C49.59639432 47.40626554 54.69233656 52.50752558 59.79132968 57.60578358 C65.23375376 63.04752921 70.67235006 68.49308829 76.1098516 73.9397521 C77.66889314 75.50091502 79.22863496 77.06137531 80.78853798 78.6216774 C83.71139787 81.54573927 86.62995931 84.47405622 89.5480957 87.40283203 C90.40496475 88.25924789 91.2618338 89.11566376 92.14466858 89.99803162 C96.96285999 94.841808 101.5658501 99.80295214 106 105 C108.35174351 107.66773931 110.73015222 110.30843085 113.125 112.9375 C113.71925781 113.60845703 114.31351563 114.27941406 114.92578125 114.97070312 C118.35151992 118.71971677 118.35151992 118.71971677 122.7734375 121.078125 C125.27386456 121.22510284 125.27386456 121.22510284 127.5 118.8125 C128.325 117.884375 129.15 116.95625 130 116 C131.66666667 114.66666667 133.33333333 113.33333333 135 112 C136.68873879 110.35570171 138.35305515 108.68615782 140 107 C140.55945313 106.45085937 141.11890625 105.90171875 141.6953125 105.3359375 C144.56389988 102.51702263 147.29938697 99.70574462 149.8125 96.5625 C150.534375 95.716875 151.25625 94.87125 152 94 C152.66 94 153.32 94 154 94 C154 93.34 154 92.68 154 92 C155.3215332 90.69750977 155.3215332 90.69750977 157.23828125 89.12890625 C162.6280873 84.54383231 167.5933072 79.55695135 172.58276367 74.54760742 C174.19142335 72.93356352 175.80539248 71.32496697 177.41992188 69.71679688 C178.46125844 68.6747998 179.50228491 67.63249272 180.54296875 66.58984375 C181.47133545 65.66034912 182.39970215 64.73085449 183.35620117 63.77319336 C186.05402261 60.94333338 188.51338862 58.01469861 191 55 C192.765625 53.390625 192.765625 53.390625 194.25 52.25 C197.02359938 50.29368116 197.02359938 50.29368116 198 48 C198.66 48 199.32 48 200 48 C200 47.34 200 46.68 200 46 C201.43621943 44.76418328 202.87830536 43.53423012 204.35546875 42.34765625 C207.89385921 39.44802511 210.90376769 36.13743147 213.8125 32.625 C215.95017672 30.09097811 218.17122345 27.92479578 220.7109375 25.796875 C225.82115425 21.38220088 230.27084881 16.4345888 234.79492188 11.43359375 C235.42591797 10.74652344 236.05691406 10.05945313 236.70703125 9.3515625 C237.2688208 8.73104004 237.83061035 8.11051758 238.40942383 7.47119141 C240 6 240 6 243 5 C243.309375 4.34 243.61875 3.68 243.9375 3 C245 1 245 1 246.83691406 0.17602539 C249 0 249 0 250.83105469 1.26342773 C251.74226074 2.21390991 251.74226074 2.21390991 252.671875 3.18359375 C253.66767578 4.20356445 253.66767578 4.20356445 254.68359375 5.24414062 C255.36550781 5.96794922 256.04742187 6.69175781 256.75 7.4375 C257.79607422 8.51741211 257.79607422 8.51741211 258.86328125 9.61914062 C260.58721636 11.40211461 262.29846609 13.19567826 264 15 C262.47958166 18.58147394 260.37553637 20.86902251 257.63056946 23.60321045 C256.7123793 24.52270477 255.79418915 25.4421991 254.84817505 26.38955688 C253.82766385 27.40139509 252.80706141 28.41314127 251.78637695 29.42480469 C250.71327274 30.49570712 249.64061636 31.56705847 248.56837463 32.63882446 C246.25880046 34.94546571 243.9461049 37.24891471 241.63094521 39.54994965 C237.96506337 43.19354124 234.30630436 46.84422943 230.64848328 50.49591064 C224.85599267 56.27701682 219.0588525 62.0534346 213.25966948 67.82782674 C202.89133256 78.15190301 192.52845266 88.48144906 182.17090386 98.81634831 C178.539298 102.43958229 174.90490255 106.05998732 171.26818717 109.67809248 C168.99701364 111.93855681 166.7279242 114.20110488 164.45932579 116.46415329 C163.41339305 117.50664074 162.36659103 118.54825694 161.31881714 119.58889389 C156.16594858 124.70746049 151.10915244 129.84503822 146.39736366 135.3756752 C144.4230516 137.67065691 142.30749067 139.80497478 140.16015625 141.9375 C139.32548828 142.76894531 138.49082031 143.60039062 137.63085938 144.45703125 C136.78330078 145.29621094 135.93574219 146.13539063 135.0625 147 C134.18787109 147.87011719 133.31324219 148.74023438 132.41210938 149.63671875 C130.27702551 151.76013549 128.13962795 153.88116378 126 156 C121.9904353 154.39141036 119.30022601 151.57405613 116.31793213 148.55844116 C115.75506776 147.99728564 115.19220338 147.43613012 114.61228251 146.85796988 C112.72664437 144.97562709 110.84824542 143.08622302 108.96972656 141.19677734 C107.6198296 139.84631628 106.26949217 138.49629537 104.91874695 137.14668274 C101.2513855 133.47989584 97.5902294 129.80696883 93.93013859 126.13292646 C90.10468215 122.29497972 86.27357294 118.4626843 82.4430542 114.62979126 C75.18952507 107.37004237 67.94110987 100.10520961 60.69450831 92.8385464 C52.44458476 84.5662793 44.18899123 76.29968076 35.9329114 68.03355861 C18.94894801 51.02868198 1.97213418 34.0166825 -15 17 C-13.60403514 14.09380865 -12.26935799 12.02878234 -9.9609375 9.765625 C-9.38085938 9.19199219 -8.80078125 8.61835938 -8.203125 8.02734375 C-7.59984375 7.44082031 -6.9965625 6.85429687 -6.375 6.25 C-5.76398438 5.64800781 -5.15296875 5.04601562 -4.5234375 4.42578125 C-3.02011376 2.94594695 -1.51065144 1.47235324 0 0 Z " fill="#0D0D0D" transform="translate(108,286)"/>
<path d="M0 0 C2.93564734 1.32556885 5.01521239 2.76441027 7.29034424 5.03637695 C7.9184903 5.65888336 8.54663635 6.28138977 9.19381714 6.92276001 C10.21017746 7.94519302 10.21017746 7.94519302 11.24707031 8.98828125 C11.96941864 9.70712494 12.69176697 10.42596863 13.43600464 11.16659546 C15.82176741 13.54355666 18.20014173 15.92775779 20.578125 18.3125 C22.2312135 19.9642417 23.88459884 21.61568638 25.53826904 23.2668457 C29.00143318 26.72706096 32.46095261 30.19086931 35.91796875 33.65722656 C40.35911743 38.10978736 44.80920684 42.55328695 49.262043 46.99415588 C52.67644262 50.40134583 56.08608571 53.81326351 59.49428558 57.22665405 C61.13394917 58.86765569 62.77511039 60.50716227 64.41776276 62.14517212 C66.70687313 64.42923004 68.98951868 66.71955444 71.27050781 69.01171875 C71.95617828 69.69334076 72.64184875 70.37496277 73.34829712 71.07723999 C73.96516388 71.6997464 74.58203064 72.32225281 75.21759033 72.96362305 C75.7580965 73.50488327 76.29860268 74.04614349 76.85548782 74.60380554 C78 76 78 76 78 78 C76.80897709 79.15699368 75.61378528 80.30999133 74.3984375 81.44140625 C72.82291406 83.19736674 71.98241666 84.95302539 70.9375 87.0625 C68.11930926 91.5938766 64.90328679 92.96934383 59.84765625 94.37890625 C48.24440542 96.25191831 34.98412013 96.58830335 24 92 C22.53046875 91.39671875 22.53046875 91.39671875 21.03125 90.78125 C6.81819114 84.3207687 -4.24835487 72.51794565 -10 58 C-15.27206 42.35610954 -15.72078451 28.52378004 -8.28125 13.36328125 C-5.79979102 8.66848703 -3.28947107 4.17932799 0 0 Z " fill="#0E0E0D" transform="translate(137,180)"/>
<path d="M0 0 C7.46337518 3.46428426 10.12682818 11.76799611 12.875 19.125 C17.54204151 33.13686157 15.74594083 48.14323697 9.42578125 61.32421875 C7.236823 65.43226368 4.72626284 69.23224348 2 73 C1.1028125 74.299375 1.1028125 74.299375 0.1875 75.625 C-9.47012628 86.11042281 -24.01896956 93.72949831 -38.3671875 94.43359375 C-40.20297292 94.4572601 -42.03917796 94.45813084 -43.875 94.4375 C-44.83519043 94.42847656 -45.79538086 94.41945313 -46.78466797 94.41015625 C-53.86238334 94.2377918 -60.89780071 93.99416681 -67 90 C-68.52865832 88.00538701 -69.41014227 86.24883679 -70.26171875 83.890625 C-70.9531514 81.73498938 -70.9531514 81.73498938 -73.3125 79.75 C-74.1478125 78.88375 -74.1478125 78.88375 -75 78 C-74.6318245 74.68496408 -73.39307486 73.02052119 -71.07041931 70.70965576 C-70.44639725 70.0815097 -69.82237518 69.45336365 -69.17944336 68.80618286 C-68.1469043 67.78982254 -68.1469043 67.78982254 -67.09350586 66.75292969 C-66.37159561 66.03058136 -65.64968536 65.30823303 -64.90589905 64.56399536 C-62.51592217 62.17610992 -60.11549153 59.79902831 -57.71484375 57.421875 C-56.05652219 55.7691481 -54.39886136 54.11575798 -52.74183655 52.46173096 C-48.37706095 48.10841424 -44.00335136 43.76418126 -39.62774658 39.42175293 C-35.1650403 34.98972478 -30.71080576 30.5492007 -26.25585938 26.109375 C-17.5121961 17.39789433 -8.75907506 8.6959826 0 0 Z " fill="#0E0E0D" transform="translate(326,181)"/>
<path d="M0 0 C5.19386766 4.3512186 10.07441339 8.91093139 14.87890625 13.68603516 C15.63255966 14.43151108 16.38621307 15.176987 17.16270447 15.9450531 C19.6323186 18.39003668 22.09793804 20.83898682 24.5625 23.2890625 C25.40683594 24.12807476 26.25117188 24.96708702 27.12109375 25.8315239 C31.57759935 30.26141323 36.03050175 34.69489219 40.48095703 39.13085938 C44.16773656 42.80423035 47.86167359 46.47017113 51.56201172 50.12988281 C56.03552401 54.55429231 60.49683854 58.99064996 64.94943237 63.43610764 C66.64855573 65.12849412 68.35194981 66.81660377 70.05960083 68.50038528 C72.4369475 70.84634675 74.79828245 73.20733779 77.15625 75.57275391 C77.86885483 76.2689534 78.58145966 76.96515289 79.31565857 77.68244934 C80.27025719 78.64952568 80.27025719 78.64952568 81.24414062 79.63613892 C82.08362244 80.47065551 82.08362244 80.47065551 82.94006348 81.32203102 C84 83 84 83 83.81129456 85.04990196 C82.53797381 88.11056626 80.21224137 90.15352794 77.87109375 92.421875 C77.10745262 93.17914886 77.10745262 93.17914886 76.3283844 93.95172119 C74.7050088 95.55833979 73.071503 97.15419822 71.4375 98.75 C70.3332995 99.83914984 69.22977555 100.92898605 68.12695312 102.01953125 C65.4257471 104.6877076 62.71540937 107.34628291 60 110 C48.01492491 104.79955274 37.19335242 91.99098311 27.75 83.125 C26.76064957 82.19824966 26.76064957 82.19824966 25.75131226 81.2527771 C-2.70481075 54.40348125 -2.70481075 54.40348125 -3.90948486 33.05374146 C-3.96933902 21.89151148 -2.48512773 10.86355836 0 0 Z " fill="#0F0F0E" transform="translate(237,89)"/>
<path d="M0 0 C4.01773444 16.41835989 7.93659049 37.66027399 -1.19166565 53.00293732 C-8.8846115 64.32523611 -19.05607637 73.87375979 -29 83.1875 C-29.69355339 83.83739647 -30.38710678 84.48729294 -31.10167694 85.15688324 C-39.87048034 93.33488108 -48.83801603 101.26598879 -58 109 C-61.81249879 107.2241334 -64.23349496 104.99634812 -67.203125 101.9921875 C-67.6857782 101.50670441 -68.1684314 101.02122131 -68.66571045 100.52102661 C-70.19858562 98.97700134 -71.72434004 97.42615176 -73.25 95.875 C-74.29120361 94.82375991 -75.33286541 93.77297343 -76.375 92.72265625 C-78.92199464 90.15366996 -81.46265177 87.57851839 -84 85 C-82.74324144 81.41187582 -81.4204863 79.04549537 -78.73583984 76.36161804 C-78.06284851 75.6816124 -77.38985718 75.00160675 -76.69647217 74.30099487 C-75.95874573 73.57091217 -75.22101929 72.84082947 -74.4609375 72.08862305 C-73.68357239 71.30760727 -72.90620728 70.52659149 -72.10528564 69.72190857 C-69.53586814 67.14438984 -66.95575752 64.57787936 -64.375 62.01171875 C-62.58851892 60.22575619 -60.80255565 58.43927553 -59.01708984 56.65229797 C-55.2758589 52.91115673 -51.52968387 49.17507023 -47.77929688 45.44311523 C-43.43989506 41.12491803 -39.10942983 36.79791685 -34.78373528 32.46599168 C-30.62266785 28.29923742 -26.45591066 24.13821299 -22.28643799 19.97986794 C-20.51159959 18.20888993 -18.73812119 16.4365479 -16.96600342 14.66284752 C-14.49525118 12.1917264 -12.01813339 9.72717607 -9.5390625 7.2644043 C-8.80133606 6.52420044 -8.06360962 5.78399658 -7.30352783 5.0213623 C-6.6305365 4.35545578 -5.95754517 3.68954926 -5.26416016 3.00346375 C-4.38590073 2.12828362 -4.38590073 2.12828362 -3.48989868 1.23542309 C-2 0 -2 0 0 0 Z " fill="#10100F" transform="translate(228,89)"/>
<path d="M0 0 C3.04332765 1.3584202 5.12309151 2.88463024 7.453125 5.2578125 C8.071875 5.88300781 8.690625 6.50820313 9.328125 7.15234375 C9.96234375 7.80332031 10.5965625 8.45429688 11.25 9.125 C12.22453125 10.11306641 12.22453125 10.11306641 13.21875 11.12109375 C14.81711727 12.74296643 16.41061897 14.3693281 18 16 C16.6811876 18.91888275 15.26237277 20.98472114 12.99485779 23.23892212 C12.37932037 23.8557637 11.76378296 24.47260529 11.1295929 25.10813904 C10.45575058 25.77321976 9.78190826 26.43830048 9.08764648 27.12353516 C8.02160187 28.18760841 8.02160187 28.18760841 6.934021 29.2731781 C4.58427335 31.61643547 2.22763726 33.95264138 -0.12890625 36.2890625 C-1.76083706 37.91472368 -3.3922543 39.54090057 -5.0231781 41.16757202 C-9.31758669 45.448674 -13.61752556 49.72417457 -17.91906738 53.99810791 C-24.80948896 60.84541464 -31.693199 67.69945259 -38.5737133 74.5567131 C-40.98278243 76.95552859 -43.39521915 79.35091945 -45.80799866 81.7460022 C-47.27779335 83.20897167 -48.74748009 84.67204961 -50.21704102 86.13525391 C-50.89290756 86.80438309 -51.56877411 87.47351227 -52.26512146 88.16291809 C-52.87783905 88.77412003 -53.49055664 89.38532196 -54.12184143 90.01504517 C-54.6566491 90.54633341 -55.19145678 91.07762165 -55.74247074 91.62500954 C-57.11263066 92.99723971 -57.11263066 92.99723971 -58 95 C-58.66 95 -59.32 95 -60 95 C-60.33 74.54 -60.66 54.08 -61 33 C-64.63 31.02 -68.26 29.04 -72 27 C-71.67 24.36 -71.34 21.72 -71 19 C-69.64567321 19.14433868 -68.29154775 19.29056661 -66.9375 19.4375 C-66.10476563 19.52773438 -65.27203125 19.61796875 -64.4140625 19.7109375 C-62.53881787 19.93548135 -60.67240196 20.23428201 -58.8125 20.5625 C-40.12729777 22.70670354 -22.01712015 18.63121415 -7 7 C-6.08927734 6.29810547 -6.08927734 6.29810547 -5.16015625 5.58203125 C-2.12914504 3.17496513 -2.12914504 3.17496513 0 0 Z " fill="#0E0F0E" transform="translate(331,262)"/>
<path d="M0 0 C0.67857056 0.5887793 0.67857056 0.5887793 1.37084961 1.18945312 C19.41338506 16.76436788 36.53002858 21.84890459 60.08203125 20.484375 C64.57039904 20.13702428 68.67278579 19.22629532 73 18 C73.495 22.95 73.495 22.95 74 28 C72.37750059 28.83819158 70.75191503 29.6704116 69.125 30.5 C68.22007812 30.9640625 67.31515625 31.428125 66.3828125 31.90625 C64 33 64 33 62 33 C62 53.46 62 73.92 62 95 C54.125 88.25 54.125 88.25 51.46278381 85.58303833 C50.85575623 84.97738541 50.24872864 84.37173248 49.62330627 83.74772644 C48.66520302 82.78423027 48.66520302 82.78423027 47.68774414 81.80126953 C46.6474556 80.76120003 46.6474556 80.76120003 45.58615112 79.70011902 C43.3167716 77.43004829 41.05094505 75.1564667 38.78515625 72.8828125 C37.20354236 71.29933161 35.62170611 69.71607279 34.03965759 68.13302612 C29.89303355 63.98259908 25.74942249 59.8291768 21.60644531 55.67510986 C17.37161778 51.4300204 13.1339288 47.1877895 8.89648438 42.9453125 C0.59486345 34.63299338 -7.70357522 26.31750511 -16 18 C-14.55695686 14.98590694 -13.13408132 12.89527984 -10.7421875 10.546875 C-10.11699219 9.928125 -9.49179688 9.309375 -8.84765625 8.671875 C-8.19667969 8.03765625 -7.54570313 7.4034375 -6.875 6.75 C-6.21628906 6.1003125 -5.55757812 5.450625 -4.87890625 4.78125 C-3.25703357 3.18288273 -1.6306719 1.58938103 0 0 Z " fill="#0D0D0D" transform="translate(132,262)"/>
<path d="M0 0 C0.0231211 12.89072255 0.04091389 25.7814402 0.05181217 38.67217922 C0.05704151 44.65719266 0.06414008 50.64219196 0.07543945 56.62719727 C0.08626653 62.39783429 0.09227645 68.16845768 0.09487724 73.93910408 C0.09673182 76.14602943 0.10035304 78.352954 0.10573006 80.55987358 C0.1129381 83.63946041 0.11399104 86.71899014 0.11352539 89.79858398 C0.11712067 90.72071182 0.12071594 91.64283966 0.12442017 92.59291077 C0.11405216 98.88594784 0.11405216 98.88594784 -1 100 C-4.30523288 100.47113782 -5.62515492 100.27375688 -8.3543396 98.28057861 C-9.16343781 97.47545837 -9.97253601 96.67033813 -10.80615234 95.84082031 C-11.72995697 94.93277649 -12.6537616 94.02473267 -13.6055603 93.08917236 C-14.59965998 92.0861244 -15.59310375 91.08242601 -16.5859375 90.078125 C-17.61178797 89.05564287 -18.63837967 88.03390392 -19.66567993 87.01287842 C-21.81383401 84.87209141 -23.95269476 82.72253225 -26.08544922 80.56640625 C-28.82267984 77.8006522 -31.58179535 75.05800031 -34.34822655 72.32149124 C-36.4710602 70.21670415 -38.58186618 68.10017928 -40.68919754 65.97988129 C-41.70224438 64.963495 -42.71902971 63.95082104 -43.73954391 62.94193268 C-45.16184869 61.53229383 -46.56650607 60.10491545 -47.97021484 58.67675781 C-48.77453949 57.8684552 -49.57886414 57.06015259 -50.40756226 56.22735596 C-52 54 -52 54 -52.04483032 52.02294922 C-50.5644337 49.1566779 -48.59881293 47.23292823 -46.3125 44.95605469 C-45.82628174 44.46779205 -45.34006348 43.97952942 -44.83911133 43.47647095 C-43.23323256 41.86758859 -41.61688132 40.26969366 -40 38.671875 C-38.88223035 37.55716303 -37.76505056 36.4418593 -36.6484375 35.32598877 C-34.30921673 32.99136797 -31.96517338 30.66174234 -29.6171875 28.3359375 C-26.60051593 25.34761351 -23.59265056 22.3506189 -20.58789062 19.35032272 C-18.28250597 17.04908412 -15.97430339 14.75069111 -13.66503906 12.45334625 C-12.55453481 11.34855634 -11.44450898 10.24328533 -10.33496094 9.1375351 C-8.78841365 7.59782457 -7.23853053 6.06155973 -5.6875 4.52636719 C-4.80449219 3.65018738 -3.92148438 2.77400757 -3.01171875 1.87127686 C-1 0 -1 0 0 0 Z " fill="#0F0F0F" transform="translate(228,152)"/>
<path d="M0 0 C4.13245919 3.54210787 8.00466937 6.88085012 11.80200195 10.7043457 C12.67593094 11.58157791 13.54985992 12.45881012 14.45027161 13.36262512 C15.37031479 14.29096664 16.29035797 15.21930817 17.23828125 16.17578125 C18.20968106 17.15159496 19.18138136 18.12710962 20.15336609 19.1023407 C23.20925864 22.16956713 26.26115467 25.24075075 29.3125 28.3125 C32.86811037 31.89173753 36.42535404 35.46932067 39.98680687 39.04274559 C41.40808406 40.47050336 42.82631913 41.90123657 44.24446106 43.33210754 C45.10262924 44.19357895 45.96079742 45.05505035 46.8449707 45.94262695 C47.60107132 46.70396439 48.35717194 47.46530182 49.13618469 48.24971008 C50.89051883 50.06454556 50.89051883 50.06454556 53 51 C51.49918802 54.48524197 49.48963848 56.79018069 46.8449707 59.49316406 C45.98680252 60.37377502 45.12863434 61.25438599 44.24446106 62.16168213 C43.30553491 63.11362196 42.36595875 64.06492104 41.42578125 65.015625 C40.71348893 65.73827168 40.71348893 65.73827168 39.98680687 66.47551727 C37.47517998 69.02291231 34.95751307 71.56415671 32.43481445 74.10058594 C29.8346577 76.71731585 27.25612951 79.35432494 24.6819582 81.99658585 C22.69387441 84.02948253 20.69031577 86.04658083 18.68227196 88.05974579 C17.72474339 89.02515777 16.77308534 89.99643032 15.82760048 90.97364044 C14.50244228 92.34029947 13.1526425 93.68293306 11.80200195 95.02441406 C10.66188408 96.17879974 10.66188408 96.17879974 9.49873352 97.35650635 C7 99 7 99 0 99 C0 66.33 0 33.66 0 0 Z " fill="#0E0E0D" transform="translate(237,153)"/>
<path d="M0 0 C5.61 0.33 11.22 0.66 17 1 C17.2037736 11.53596618 17.36869403 22.07061251 17.46630955 32.60810757 C17.51317361 37.50177468 17.57667735 42.39401771 17.67895508 47.28686523 C17.77713966 52.01377798 17.83063867 56.73932609 17.85389519 61.46718025 C17.87045571 63.26579323 17.90279725 65.06433599 17.95157051 66.86236382 C18.31902986 80.97714421 18.31902986 80.97714421 14.93649292 86.1645813 C12.73415186 88.384619 10.58847472 90.25386643 8 92 C4.58987074 90.53851603 2.22513024 88.99888937 0 86 C-0.37400179 83.08747474 -0.5070566 80.55955535 -0.45410156 77.65136719 C-0.45468567 76.81197601 -0.45526978 75.97258484 -0.45587158 75.10775757 C-0.45308786 72.33704071 -0.42198277 69.56740359 -0.390625 66.796875 C-0.38316362 64.87445666 -0.3774702 62.95203071 -0.37347412 61.02960205 C-0.35820967 55.9725236 -0.31892075 50.9159055 -0.2746582 45.85900879 C-0.23372306 40.69773587 -0.21546685 35.5363885 -0.1953125 30.375 C-0.15242725 20.24976532 -0.08207065 10.12499298 0 0 Z " fill="#131312" transform="translate(224,305)"/>
<path d="M0 0 C3.95478251 2.91900614 7.41112181 6.50974362 9.625 10.9375 C10.50063864 18.66307133 10.37675275 24.86693109 5.453125 31.125 C1.12351647 35.41760333 -3.25628805 37.12119463 -9.3125 37.5625 C-15.16130242 37.27455896 -19.24960578 35.0304108 -23.375 30.9375 C-27.46027971 25.21047237 -29.38776609 19.91433305 -28.375 12.9375 C-26.64627182 6.93244422 -23.321288 3.22475239 -18.01171875 0.00390625 C-12.08661124 -2.39247056 -5.99843131 -1.88839504 0 0 Z " fill="#10100F" transform="translate(241.375,261.0625)"/>
<path d="M0 0 C2.27615464 1.09883328 3.30183029 1.80901285 4.8125 3.875 C5.09295556 6.51648731 5.19169802 8.91930104 5.15307617 11.55932617 C5.15351425 12.3400499 5.15395233 13.12077362 5.15440369 13.92515564 C5.15231324 16.50634753 5.1289706 19.0868903 5.10546875 21.66796875 C5.09987369 23.45729721 5.09560317 25.24663027 5.09260559 27.03596497 C5.08114968 31.74609052 5.05167611 36.45593866 5.01849365 41.16595459 C4.98780883 45.97192634 4.97410365 50.77794291 4.95898438 55.58398438 C4.9268071 65.01444482 4.87560175 74.44469934 4.8125 83.875 C4.07543823 83.11876343 3.33837646 82.36252686 2.57897949 81.58337402 C-0.0058891 78.94225328 -0.0058891 78.94225328 -2.39831543 77.18713379 C-5.99236004 74.30518745 -7.92728847 72.12271839 -8.88305664 67.53979492 C-9.1133435 63.40811557 -9.0891529 59.35161565 -8.96875 55.21875 C-8.95380667 53.70563768 -8.94242953 52.19248634 -8.93444824 50.67932129 C-8.90407607 46.71959296 -8.8256521 42.76225735 -8.73681641 38.8034668 C-8.65459603 34.75472375 -8.61836032 30.7055894 -8.578125 26.65625 C-8.49263447 18.72807534 -8.35631899 10.80183628 -8.1875 2.875 C-2.4609375 -0.140625 -2.4609375 -0.140625 0 0 Z " fill="#121211" transform="translate(211.1875,297.125)"/>
<path d="M0 0 C2.97 1.32 5.94 2.64 9 4 C9.2796442 12.39756948 9.49203547 20.79315519 9.62174606 29.1942482 C9.68404618 33.09668101 9.76832428 36.99590107 9.90527344 40.89648438 C10.8893063 69.64180515 10.8893063 69.64180515 4.70245361 76.59417725 C-1.31570242 82 -1.31570242 82 -4 82 C-4.0926561 71.89922487 -4.16374267 61.79855075 -4.20724869 51.69743729 C-4.22812886 47.00712327 -4.25645422 42.31709987 -4.30175781 37.62695312 C-4.34520044 33.10117484 -4.36913387 28.57567619 -4.37950897 24.04970551 C-4.38690321 22.32249295 -4.40134245 20.5952958 -4.42292023 18.86820221 C-4.45193394 16.44988361 -4.45595697 14.03272229 -4.45410156 11.61425781 C-4.46848267 10.89928131 -4.48286377 10.18430481 -4.49768066 9.44766235 C-4.468423 5.92629402 -4.23804293 4.29056093 -1.97161865 1.52410889 C-1.3209845 1.02115295 -0.67035034 0.51819702 0 0 Z " fill="#121211" transform="translate(254,296)"/>
</svg>
