<?xml version="1.0" encoding="UTF-8"?>
<svg version="1.1" xmlns="http://www.w3.org/2000/svg" width="460" height="460">
<path d="M0 0 C151.8 0 303.6 0 460 0 C460 151.8 460 303.6 460 460 C308.2 460 156.4 460 0 460 C0 308.2 0 156.4 0 0 Z " fill="#0B0C0A" transform="translate(0,0)"/>
<path d="M0 0 C0.66 0 1.32 0 2 0 C2 71.94 2 143.88 2 218 C-9.88 218 -21.76 218 -34 218 C-34 175.1 -34 132.2 -34 88 C-39.02363305 92.01890644 -43.27279716 96.1305013 -47.4375 101 C-50.397875 104.42273291 -53.47886522 107.16778289 -57 110 C-59.79854238 112.65861526 -62.35445428 115.40679385 -64.8125 118.375 C-67.64157347 121.72905618 -70.78058674 124.53110068 -74.11328125 127.375 C-77.32233864 130.13890864 -80.24218096 133.00699574 -82.8125 136.375 C-85.31273383 139.3752806 -88.0882937 141.77188422 -91.046875 144.30859375 C-94.53471351 147.3290619 -97.66091841 150.54638271 -100.5625 154.125 C-102.61426444 156.54502985 -104.32254943 158.33813413 -107 160 C-107.66 160 -108.32 160 -109 160 C-109 159.34 -109 158.68 -109 158 C-109.99 157.67 -110.98 157.34 -112 157 C-113.4296875 155.546875 -113.4296875 155.546875 -114.875 153.75 C-118.43414546 149.45628889 -122.21567319 145.63431458 -126.5 142.0625 C-129.77318775 139.29941943 -132.30882312 136.32856088 -135 133 C-137.65861526 130.20145762 -140.40679385 127.64554572 -143.375 125.1875 C-145.89953989 123.0542282 -148.0821718 120.83899114 -150.21630859 118.31713867 C-154.01271893 113.92725308 -158.04677872 109.82579278 -162.1640625 105.73828125 C-162.91916107 104.98459763 -163.67425964 104.230914 -164.45223999 103.45439148 C-166.84079761 101.07137744 -169.23282071 98.69187785 -171.625 96.3125 C-173.23721216 94.70531182 -174.84919338 93.09789193 -176.4609375 91.49023438 C-181.85757888 86.10814886 -181.85757888 86.10814886 -187.26405334 80.73594666 C-188.74364926 79.25635074 -190.19884629 77.75242192 -191.64868164 76.24365234 C-194.11907872 73.88637385 -196.67313661 72.11834509 -199.51953125 70.23828125 C-207.35146635 64.37928108 -215.39240542 58.14601916 -217.64221191 48.14526367 C-219.75666069 32.62959274 -218.37922299 16.5364174 -217 1 C-213.48431055 2.50334328 -211.22298243 4.53007264 -208.53277588 7.22671509 C-207.64379105 8.11295059 -206.75480621 8.9991861 -205.83888245 9.91227722 C-204.86157074 10.89666663 -203.88435533 11.88115165 -202.90722656 12.86572266 C-201.87259661 13.90091687 -200.83752583 14.93567065 -199.80204773 15.97001648 C-196.99415918 18.77733112 -194.19248057 21.59077028 -191.39186954 24.40534258 C-188.46328989 27.34642319 -185.52904698 30.2818425 -182.59539795 33.21786499 C-177.04183146 38.77764811 -171.49338298 44.3425099 -165.94675136 49.90921056 C-159.63150029 56.24681492 -153.31057049 62.57874243 -146.98915529 68.9101975 C-133.98643758 81.93382135 -120.99087488 94.96456361 -108 108 C-102.01498518 103.03809882 -96.53052343 97.67215027 -91.04150391 92.17089844 C-90.05709088 91.18784287 -89.07246578 90.20499964 -88.08764648 89.22235107 C-85.43285437 86.57208924 -82.78120044 83.91870884 -80.13026476 81.26459026 C-77.35090846 78.48269107 -74.56910059 75.70324506 -71.78768921 72.92340088 C-67.12407594 68.26160216 -62.46256492 63.59770914 -57.80224609 58.93261719 C-52.41163621 53.53655008 -47.01741179 48.14411635 -41.62132704 42.75352454 C-36.98327509 38.12000504 -32.34716768 33.48454668 -27.71269166 28.84745049 C-24.94661745 26.07981629 -22.17986958 23.31286462 -19.41136551 20.54766083 C-16.81371565 17.95289213 -14.21850993 15.35570376 -11.62519836 12.75659943 C-10.21606392 11.34550564 -8.80445755 9.93688172 -7.39279175 8.52832031 C-6.5601178 7.69282654 -5.72744385 6.85733276 -4.86953735 5.996521 C-3.77840606 4.90482416 -3.77840606 4.90482416 -2.6652317 3.79107285 C-0.9285236 2.09163094 -0.9285236 2.09163094 0 0 Z " fill="#FCFCFB" transform="translate(337,121)"/>
</svg>
