<?xml version="1.0" encoding="UTF-8"?>
<svg version="1.1" xmlns="http://www.w3.org/2000/svg" width="512" height="512">
<path d="M0 0 C1.45108658 0.00273422 1.45108658 0.00273422 2.93148804 0.00552368 C17.26440977 0.05095174 31.21023917 0.55983928 45.3125 3.3125 C46.65803955 3.55395752 46.65803955 3.55395752 48.03076172 3.80029297 C107.84088904 14.62287989 165.35495829 48.68064457 202.3125 97.3125 C202.72918945 97.85277832 203.14587891 98.39305664 203.57519531 98.94970703 C211.2584873 108.9447116 218.00092968 119.40459036 224.3125 130.3125 C224.70679199 130.98974121 225.10108398 131.66698242 225.50732422 132.36474609 C238.68961173 155.2833756 247.29510918 180.85822563 252.625 206.6875 C252.77243652 207.39817627 252.91987305 208.10885254 253.07177734 208.84106445 C255.90934438 223.70918386 256.66283959 238.58655407 256.62817383 253.68798828 C256.6250179 256.54628882 256.64857578 259.40354516 256.67382812 262.26171875 C256.71920177 275.49529805 255.48145966 288.26366546 253.3125 301.3125 C253.03031616 303.01913818 253.03031616 303.01913818 252.74243164 304.76025391 C241.72908253 366.0243599 205.60879466 424.44670637 155.3125 461.3125 C154.45857666 461.94961914 154.45857666 461.94961914 153.58740234 462.59960938 C144.8447849 469.11651959 135.78842938 474.92287157 126.3125 480.3125 C125.68069824 480.67698242 125.04889648 481.04146484 124.39794922 481.41699219 C101.37828699 494.59268166 75.85904551 503.27606895 49.9375 508.625 C49.22682373 508.77243652 48.51614746 508.91987305 47.78393555 509.07177734 C32.14141634 512.05713787 16.50580394 512.6873098 0.625 512.625 C-0.34239105 512.62317719 -1.3097821 512.62135437 -2.30648804 512.61947632 C-16.63940977 512.57404826 -30.58523917 512.06516072 -44.6875 509.3125 C-45.58452637 509.15152832 -46.48155273 508.99055664 -47.40576172 508.82470703 C-107.21588904 498.00212011 -164.72995829 463.94435543 -201.6875 415.3125 C-202.10418945 414.77222168 -202.52087891 414.23194336 -202.95019531 413.67529297 C-210.6334873 403.6802884 -217.37592968 393.22040964 -223.6875 382.3125 C-224.08179199 381.63525879 -224.47608398 380.95801758 -224.88232422 380.26025391 C-238.06461173 357.3416244 -246.67010918 331.76677437 -252 305.9375 C-252.14743652 305.22682373 -252.29487305 304.51614746 -252.44677734 303.78393555 C-255.43213787 288.14141634 -256.0623098 272.50580394 -256 256.625 C-255.99817719 255.65760895 -255.99635437 254.6902179 -255.99447632 253.69351196 C-255.94904826 239.36059023 -255.44016072 225.41476083 -252.6875 211.3125 C-252.44604248 209.96696045 -252.44604248 209.96696045 -252.19970703 208.59423828 C-241.37712011 148.78411096 -207.31935543 91.27004171 -158.6875 54.3125 C-158.14722168 53.89581055 -157.60694336 53.47912109 -157.05029297 53.04980469 C-147.0552884 45.3665127 -136.59540964 38.62407032 -125.6875 32.3125 C-125.01025879 31.91820801 -124.33301758 31.52391602 -123.63525391 31.11767578 C-100.7166244 17.93538827 -75.14177437 9.32989082 -49.3125 4 C-48.60182373 3.85256348 -47.89114746 3.70512695 -47.15893555 3.55322266 C-31.51641634 0.56786213 -15.88080394 -0.0623098 0 0 Z " fill="#6E64C3" transform="translate(255.6875,-0.3125)"/>
<path d="M0 0 C6.91915855 2.22715294 13.65261304 4.77893018 20.39453125 7.4921875 C21.9974427 8.13391403 21.9974427 8.13391403 23.63273621 8.78860474 C25.88300408 9.69005013 28.13277754 10.5927306 30.38208008 11.49658203 C33.79076884 12.86626794 37.20090125 14.23230465 40.61132812 15.59765625 C42.80998152 16.47895293 45.00855193 17.36045667 47.20703125 18.2421875 C48.2105513 18.6444455 49.21407135 19.04670349 50.2480011 19.46115112 C57.19050076 22.25188832 64.09184308 25.12160128 71 28 C71 110.5 71 193 71 278 C34.89773183 292.93886959 34.89773183 292.93886959 24.27880859 297.2590332 C22.71586878 297.89582987 21.1537339 298.53460468 19.59228516 299.17504883 C17.25073458 300.13527855 14.90692073 301.0897718 12.5625 302.04296875 C11.86995117 302.3282695 11.17740234 302.61357025 10.46386719 302.90751648 C2.88236433 305.97280506 2.88236433 305.97280506 0 306 C-2.55200195 304.11328125 -2.55200195 304.11328125 -5.23828125 301.3125 C-5.72274216 300.81717773 -6.20720306 300.32185547 -6.7063446 299.81152344 C-8.25646732 298.22122256 -9.78477833 296.61180539 -11.3125 295 C-13.32424627 292.91163104 -15.34379712 290.83088331 -17.36328125 288.75 C-17.85639801 288.238927 -18.34951477 287.727854 -18.85757446 287.20129395 C-22.04850788 283.91233958 -25.35958457 280.881591 -28.84838867 277.91796875 C-34.54288088 272.84183908 -39.79528147 267.25063124 -45.15478516 261.82470703 C-50.59365932 256.32452251 -56.0166122 250.89017389 -61.90820312 245.86914062 C-67.37729197 240.98219569 -72.4306783 235.61559068 -77.58203125 230.39746094 C-84.58760489 223.24968184 -84.58760489 223.24968184 -91.98828125 216.51953125 C-95.45490762 213.56362523 -98.66322656 210.38284741 -101.85546875 207.13671875 C-102.62747116 206.35290329 -102.62747116 206.35290329 -103.41506958 205.55325317 C-105.551281 203.38053806 -107.68441281 201.20498493 -109.80834961 199.02026367 C-111.37978889 197.40644957 -112.96057205 195.80228023 -114.54296875 194.19921875 C-115.01703659 193.70653 -115.49110443 193.21384125 -115.97953796 192.70622253 C-118.75043281 189.91425904 -121.10982785 187.86015852 -125 187 C-127.0004552 187.7551772 -127.0004552 187.7551772 -128.72265625 189.33984375 C-129.41593018 189.9009082 -130.1092041 190.46197266 -130.82348633 191.04003906 C-131.56236084 191.66620117 -132.30123535 192.29236328 -133.0625 192.9375 C-134.67026139 194.24547553 -136.2796987 195.55139316 -137.890625 196.85546875 C-138.72658203 197.53915527 -139.56253906 198.2228418 -140.42382812 198.92724609 C-144.63493493 202.31544707 -148.97338577 205.52849886 -153.3125 208.75 C-158.71204641 212.7814976 -164.10171152 216.82191121 -169.4375 220.9375 C-170.9225 222.07445312 -170.9225 222.07445312 -172.4375 223.234375 C-175.40515882 225.52017888 -178.32638248 227.86133221 -181.25 230.203125 C-183.14558479 231.69823184 -185.04141909 233.19302238 -186.9375 234.6875 C-187.83847412 235.42025146 -188.73944824 236.15300293 -189.66772461 236.90795898 C-190.52889893 237.58157471 -191.39007324 238.25519043 -192.27734375 238.94921875 C-193.42577759 239.86707153 -193.42577759 239.86707153 -194.59741211 240.8034668 C-197 242 -197 242 -203 241 C-210.92 237.04 -218.84 233.08 -227 229 C-227 178.84 -227 128.68 -227 77 C-201 64 -201 64 -196 65 C-193.68252774 66.66659529 -191.54312062 68.34557227 -189.375 70.1875 C-183.61025989 74.945082 -177.73116065 79.47730666 -171.6875 83.875 C-165.37416001 88.48136227 -159.1475011 93.17450579 -153 98 C-143.8173795 105.20606937 -134.43237147 112.12545273 -125 119 C-121.55598213 117.37915347 -119.39328482 115.57463755 -116.75 112.8125 C-114.089944 110.04079932 -111.37340302 107.43991089 -108.453125 104.94921875 C-102.67237855 99.9407249 -97.36981955 94.43942833 -92 89 C-86.18592585 83.11055822 -80.40963243 77.26276486 -74.109375 71.88671875 C-69.19326172 67.48952854 -64.63255271 62.69260432 -60 58 C-48.43006282 46.28008216 -48.43006282 46.28008216 -44.03125 42.53125 C-38.18871846 37.54578403 -32.89352686 31.96036903 -27.5 26.5 C-14.88290905 13.72654499 -14.88290905 13.72654499 -8.59570312 8.36865234 C-6.63657852 6.68828935 -4.80571019 4.90582915 -3 3.0625 C-2 2.04166667 -1 1.02083333 0 0 Z " fill="#FEFEFE" transform="translate(334,101)"/>
<path d="M0 0 C7.87470586 6.74974788 7.87470586 6.74974788 11.51081848 10.39729309 C12.33372375 11.22026886 13.15662903 12.04324463 14.00447083 12.89115906 C14.88318344 13.77503799 15.76189606 14.65891693 16.66723633 15.56958008 C17.62045258 16.52471914 18.57389945 17.47962809 19.52755737 18.43432617 C21.56747794 20.4773888 23.60583939 22.52198946 25.64298439 24.5678196 C28.8631949 27.80162127 32.08727807 31.03154346 35.31193542 34.26091003 C42.14843447 41.10847182 48.98067266 47.96027772 55.8125 54.8125 C63.20632543 62.22835759 70.60088939 69.64347008 78.00031871 77.05373687 C81.20751412 80.26591977 84.41225475 83.48052603 87.61514914 86.69699728 C89.60217304 88.69146098 91.59124902 90.68386823 93.58089828 92.67571259 C94.9466878 94.04427691 96.30996192 95.41535007 97.673172 96.78648376 C98.48197815 97.59536041 99.2907843 98.40423706 100.12409973 99.23762512 C100.82847577 99.94422177 101.53285181 100.65081842 102.25857258 101.3788271 C103.91809719 103.0765987 103.91809719 103.0765987 106 104 C106.62148042 152.16951346 106.62148042 152.16951346 103 170 C102.66756516 171.82023884 102.33555109 173.64055456 102.00390625 175.4609375 C90.40700638 236.01848277 54.88027695 293.43913584 5 330 C4.14607666 330.63711914 4.14607666 330.63711914 3.27490234 331.28710938 C-5.4677151 337.80401959 -14.52407062 343.61037157 -24 349 C-24.63180176 349.36448242 -25.26360352 349.72896484 -25.91455078 350.10449219 C-49.12233406 363.38785589 -74.81640845 372.02770454 -100.9375 377.4375 C-102.11662964 377.6837915 -102.11662964 377.6837915 -103.31958008 377.93505859 C-105.54294056 378.36208535 -107.7566519 378.69599735 -110 379 C-110.7012975 379.0982254 -111.402595 379.1964508 -112.12514395 379.29765272 C-116.67375509 379.63756569 -119.34525006 379.2270421 -122.87170506 376.2357254 C-124.20465329 374.94042322 -125.51337688 373.61990267 -126.80189514 372.28039551 C-127.53237373 371.55760674 -128.26285232 370.83481797 -129.01546663 370.09012651 C-131.45546339 367.66494363 -133.86191822 365.2090178 -136.26977539 362.75195312 C-138.01298958 361.00620009 -139.75818837 359.26242684 -141.50521851 357.52049255 C-145.26079252 353.76696737 -149.00215285 350.00009818 -152.73124886 346.22032166 C-158.12280269 340.75554169 -163.53911696 335.31586225 -168.96174365 329.88193494 C-177.75937507 321.06461866 -186.53673144 312.22740298 -195.30151367 303.37744141 C-203.81438107 294.78192945 -212.33667499 286.19594615 -220.87182617 277.62255859 C-221.39815988 277.09386038 -221.92449358 276.56516216 -222.4667768 276.02044278 C-225.10736645 273.36810757 -227.74814259 270.71595811 -230.3890115 268.06390095 C-252.28833267 246.07131916 -274.15447406 224.04602442 -296 202 C-293 201 -293 201 -290.90283203 201.8203125 C-289.71729736 202.46613281 -289.71729736 202.46613281 -288.5078125 203.125 C-287.63769531 203.58390625 -286.76757812 204.0428125 -285.87109375 204.515625 C-284.04640762 205.50194183 -282.2234733 206.49150667 -280.40234375 207.484375 C-279.52964844 207.94328125 -278.65695312 208.4021875 -277.7578125 208.875 C-276.9652002 209.30554688 -276.17258789 209.73609375 -275.35595703 210.1796875 C-272.40577426 211.2069014 -270.94930532 210.9804825 -268 210 C-265.77764073 208.69056045 -265.77764073 208.69056045 -263.65625 206.96484375 C-262.83278076 206.32836914 -262.00931152 205.69189453 -261.16088867 205.03613281 C-260.28279541 204.34358398 -259.40470215 203.65103516 -258.5 202.9375 C-256.61084763 201.47243631 -254.72151971 200.00759897 -252.83203125 198.54296875 C-251.86604004 197.78935059 -250.90004883 197.03573242 -249.90478516 196.25927734 C-245.35779749 192.72273138 -240.77273251 189.23672247 -236.1875 185.75 C-235.31544922 185.08524658 -234.44339844 184.42049316 -233.54492188 183.7355957 C-227.57404175 179.18611302 -221.58938278 174.65527686 -215.55810547 170.18603516 C-212.41136755 167.84732035 -209.32307009 165.46685435 -206.30078125 162.96875 C-205.71167969 162.48970215 -205.12257813 162.0106543 -204.515625 161.51708984 C-202.92252076 160.21492809 -201.34538345 158.8933001 -199.76953125 157.5703125 C-197 156 -197 156 -194.75 156.49487305 C-190.93159673 158.5847573 -188.24537112 161.40407022 -185.23046875 164.51171875 C-184.27071892 165.48139336 -184.27071892 165.48139336 -183.2915802 166.47065735 C-181.24964353 168.5359411 -179.21812142 170.61109502 -177.1875 172.6875 C-175.16595146 174.74434887 -173.1422057 176.7989626 -171.11555481 178.8507843 C-169.85772158 180.12531151 -168.60300297 181.40292354 -167.35209656 182.68424988 C-163.67461306 186.42319655 -159.85615279 189.91437312 -155.88667297 193.34065247 C-153.22173308 195.68449345 -150.74414879 198.16164593 -148.25 200.6875 C-147.49638184 201.4467981 -147.49638184 201.4467981 -146.72753906 202.22143555 C-144.6204205 204.34459649 -142.51945787 206.47380842 -140.41796875 208.60253906 C-133.42045297 215.74256639 -133.42045297 215.74256639 -126.03125 222.46875 C-119.59623969 227.95978152 -113.7859377 234.16094652 -107.84521484 240.17529297 C-102.34160074 245.74094722 -96.85255634 251.23818316 -90.88623047 256.31445312 C-88.70692577 258.26189289 -86.69628701 260.32594814 -84.67578125 262.4375 C-83.95712891 263.18644531 -83.23847656 263.93539063 -82.49804688 264.70703125 C-81.0198026 266.25793275 -79.55126915 267.81813905 -78.09179688 269.38671875 C-77.37701172 270.12535156 -76.66222656 270.86398437 -75.92578125 271.625 C-75.29067627 272.29789062 -74.65557129 272.97078125 -74.0012207 273.6640625 C-72.07296952 275.26824438 -72.07296952 275.26824438 -69.676651 274.6993866 C-67.06292234 274.01644108 -64.66943654 273.17318728 -62.17236328 272.14575195 C-61.24013947 271.76477859 -60.30791565 271.38380524 -59.34744263 270.99128723 C-58.34848969 270.57779526 -57.34953674 270.16430328 -56.3203125 269.73828125 C-55.27535614 269.31000534 -54.23039978 268.88172943 -53.15377808 268.44047546 C-49.8091111 267.06867917 -46.46699765 265.69078493 -43.125 264.3125 C-40.91423711 263.40387192 -38.70330131 262.49566441 -36.4921875 261.58789062 C-35.41475281 261.14549042 -34.33731812 260.70309021 -33.22723389 260.24728394 C-29.07797268 258.54410216 -24.92846362 256.84152681 -20.77844238 255.14019775 C-19.01538888 254.41668819 -17.25287206 253.69186834 -15.49108887 252.965271 C-13.36841492 252.09044371 -11.24330127 251.2218943 -9.1171875 250.35546875 C-7.98651855 249.89164795 -6.85584961 249.42782715 -5.69091797 248.94995117 C-3 248 -3 248 0 248 C0 166.16 0 84.32 0 0 Z " fill="#5046AF" transform="translate(406,131)"/>
<path d="M0 0 C0 34.32 0 68.64 0 104 C-2.94622075 102.52688963 -5.21178533 101.22464911 -7.80859375 99.3046875 C-8.54464844 98.76199219 -9.28070313 98.21929687 -10.0390625 97.66015625 C-10.83054687 97.07105469 -11.62203125 96.48195313 -12.4375 95.875 C-13.27152344 95.25753906 -14.10554688 94.64007813 -14.96484375 94.00390625 C-22.06835066 88.72912954 -29.10220158 83.36460778 -36.12915039 77.98852539 C-47.2795565 69.4706383 -58.5646113 61.13149671 -70 53 C-68.88024077 49.64072231 -68.26397398 49.19085244 -65.484375 47.20703125 C-64.36518677 46.39733887 -64.36518677 46.39733887 -63.22338867 45.57128906 C-62.40717041 44.99088867 -61.59095215 44.41048828 -60.75 43.8125 C-59.01049599 42.55507524 -57.27226087 41.29589364 -55.53515625 40.03515625 C-54.62652832 39.37660645 -53.71790039 38.71805664 -52.78173828 38.03955078 C-48.19766663 34.67854195 -43.69529162 31.21225038 -39.1875 27.75 C-32.29464663 22.4686179 -25.33651833 17.32341241 -18.234375 12.328125 C-14.09404459 9.34788717 -10.07103474 6.2273381 -6.08398438 3.04541016 C-2.21359634 0 -2.21359634 0 0 0 Z " fill="#5046AF" transform="translate(327,202)"/>
<path d="M0 0 C8.93548387 6.7016129 8.93548387 6.7016129 12.5 10.4375 C15.8126237 13.82926488 19.20863088 17.00725606 22.8046875 20.09375 C27.27777685 23.97785605 31.62658334 28.00443368 36 32 C32.15498923 35.89569829 28.20291564 39.65565188 24.1875 43.375 C23.5672998 43.95008301 22.94709961 44.52516602 22.30810547 45.11767578 C18.52667371 48.61423902 14.71818854 52.0711507 10.81640625 55.43359375 C9.46079219 56.60262867 8.11616322 57.78442456 6.77734375 58.97265625 C5.68099609 59.94525391 5.68099609 59.94525391 4.5625 60.9375 C3.57443359 61.81728516 3.57443359 61.81728516 2.56640625 62.71484375 C1 64 1 64 0 64 C0 42.88 0 21.76 0 0 Z " fill="#554CB1" transform="translate(142,222)"/>
</svg>
